<svg width="219" height="136" viewBox="0 0 219 136" fill="none" xmlns="http://www.w3.org/2000/svg">
    <ellipse cx="109.58" cy="72" rx="63.5861" ry="64" fill="#F3F4F6" />
    <path fill-rule="evenodd" clip-rule="evenodd"
        d="M153.474 19.5971C155.384 19.0835 157.383 18.8244 159.323 18.5871C159.741 18.5373 160.129 18.815 160.158 19.2062C160.218 19.5977 159.92 19.9557 159.532 20.0055C157.652 20.234 155.712 20.4785 153.892 20.9729C153.504 21.0802 153.086 20.8594 152.967 20.4796C152.848 20.1002 153.086 19.7046 153.474 19.5971Z"
        fill="#111827" />
    <path fill-rule="evenodd" clip-rule="evenodd"
        d="M147.686 12.3155C150.759 9.30963 154.22 6.69068 157.234 3.60417C157.503 3.31591 157.98 3.30047 158.279 3.56957C158.577 3.83896 158.607 4.29194 158.308 4.5802C155.295 7.67557 151.833 10.3031 148.76 13.3178C148.461 13.5992 147.984 13.6032 147.686 13.3264C147.417 13.0499 147.387 12.5969 147.686 12.3155Z"
        fill="#111827" />
    <path fill-rule="evenodd" clip-rule="evenodd"
        d="M141.926 0.753757C141.837 2.47417 141.747 4.19458 141.658 5.91528C141.658 6.30935 141.3 6.61363 140.882 6.59447C140.464 6.57502 140.166 6.23958 140.166 5.84522C140.256 4.12195 140.345 2.39896 140.434 0.675971C140.464 0.2819 140.822 -0.0203736 141.24 0.00107435C141.628 0.0225223 141.956 0.359972 141.926 0.753757Z"
        fill="#111827" />
    <rect x="76.8955" y="16.3738" width="65.6066" height="110.056" rx="8" fill="#01A7F4" />
    <rect x="80.9958" y="27.3794" width="57.4057" height="89.4206" rx="4" fill="#67CEFE" />
    <rect x="80.9958" y="21.8765" width="16.4016" height="2.7514" rx="1" fill="#E6F7FF" />
    <rect x="96.0308" y="119.551" width="27.3361" height="2.7514" rx="1" fill="#E6F7FF" />
    <rect x="124.734" y="21.8765" width="13.668" height="2.7514" rx="1" fill="#E6F7FF" />
    <rect x="116.533" y="21.8765" width="6.83402" height="2.7514" rx="1" fill="#E6F7FF" />
    <g filter="url(#filter0_d_4451_11616)">
        <rect x="28.166" y="45" width="103" height="53" rx="8" fill="white" />
    </g>
    <rect x="62.166" y="57" width="27" height="3" rx="1" fill="#E5E7EB" />
    <rect x="62.166" y="62" width="51" height="3" rx="1" fill="#E5E7EB" />
    <rect x="62.166" y="80" width="27" height="3" rx="1" fill="#E5E7EB" />
    <rect x="62.166" y="85" width="51" height="3" rx="1" fill="#E5E7EB" />
    <rect opacity="0.5" x="36.166" y="54" width="20" height="13" rx="2" fill="#22C55E" />
    <rect opacity="0.5" x="36.166" y="77" width="20" height="13" rx="2" fill="#22C55E" />
    <line x1="36.166" y1="71.75" x2="123.166" y2="71.75" stroke="#F3F4F6" stroke-width="0.5" />
    <path fill-rule="evenodd" clip-rule="evenodd"
        d="M45.0827 81.5833C45.0827 81.2333 44.8493 81 44.4993 81C44.1493 81 43.916 81.2333 43.916 81.5833C43.916 81.9333 44.1493 82.1667 44.4993 82.1667C44.8493 82.1667 45.0827 81.9333 45.0827 81.5833ZM43.3327 83.3333L42.166 85.6667H49.166L46.8327 82.1667L45.0827 84.5L43.3327 83.3333Z"
        fill="white" />
    <path fill-rule="evenodd" clip-rule="evenodd"
        d="M45.0827 58.5833C45.0827 58.2333 44.8493 58 44.4993 58C44.1493 58 43.916 58.2333 43.916 58.5833C43.916 58.9333 44.1493 59.1667 44.4993 59.1667C44.8493 59.1667 45.0827 58.9333 45.0827 58.5833ZM43.3327 60.3333L42.166 62.6667H49.166L46.8327 59.1667L45.0827 61.5L43.3327 60.3333Z"
        fill="white" />
    <path fill-rule="evenodd" clip-rule="evenodd" d="M180.479 118.47L173.166 121.354L180.916 126.316L180.479 118.47Z"
        fill="#CDDAE7" />
    <path fill-rule="evenodd" clip-rule="evenodd"
        d="M208.9 74.8555L208.919 74.7882C208.608 73.3042 209.453 71.8211 210.888 71.3321C212.323 70.8432 213.898 71.5022 214.557 72.8678L214.589 72.9393C214.716 73.3009 215.049 73.5502 215.432 73.5713C215.815 73.5924 216.173 73.3811 216.34 73.0357C216.452 72.8093 216.467 72.547 216.382 72.3091C216.195 71.7787 216.473 71.1972 217.004 71.0103C217.534 70.8234 218.116 71.1019 218.303 71.6324C218.698 73.1012 217.931 74.6332 216.518 75.1974C215.106 75.7616 213.495 75.1795 212.769 73.8427L212.692 73.6751C212.58 73.3548 212.305 73.1188 211.971 73.0562C211.638 72.9935 211.296 73.1136 211.075 73.3712C210.854 73.6289 210.787 73.9849 210.899 74.3052L210.88 74.3725C211.221 75.6272 210.716 76.9591 209.628 77.671C208.539 78.3829 207.116 78.3126 206.104 77.497C205.754 77.2018 205.476 76.8303 205.292 76.4111L205.219 76.2655C205.106 75.9451 204.831 75.7092 204.498 75.6465C204.164 75.5839 203.822 75.704 203.601 75.9616C203.38 76.2192 203.313 76.5753 203.426 76.8956C203.613 77.4261 203.334 78.0076 202.804 78.1944C202.273 78.3813 201.692 78.1028 201.505 77.5723L201.446 77.3786C201.134 75.8946 201.979 74.4114 203.415 73.9225C204.85 73.4336 206.424 74.0926 207.084 75.4582L207.115 75.5296C207.236 75.8485 207.517 76.0789 207.853 76.134C208.19 76.1892 208.53 76.0607 208.746 75.797C208.962 75.5332 209.02 75.1744 208.9 74.8555Z"
        fill="#CDDAE7" />
    <circle cx="177.857" cy="20.6657" r="2.62" transform="rotate(-1.01 177.857 20.6657)" fill="#CDDAE7" />
    <path fill-rule="evenodd" clip-rule="evenodd"
        d="M9.82732 72.0999V72.0199C10.0604 70.5028 9.11062 69.0545 7.62632 68.6634C6.14201 68.2724 4.60198 69.0649 4.05732 70.4999V70.5799C3.96059 70.9523 3.64879 71.2296 3.26763 71.2822C2.88647 71.3348 2.51125 71.1523 2.31732 70.8199C2.18768 70.6034 2.15159 70.3436 2.21732 70.0999C2.36091 69.5477 2.0296 68.9835 1.47732 68.8399C0.925032 68.6963 0.360911 69.0277 0.217317 69.5799C-0.0618232 71.0754 0.822626 72.5431 2.27529 72.995C3.72795 73.4469 5.28888 72.7399 5.90732 71.3499C5.93239 71.2952 5.95248 71.2383 5.96732 71.1799C6.13506 70.7188 6.62645 70.4613 7.10112 70.5858C7.57579 70.7103 7.87752 71.1758 7.79732 71.6599C7.79732 71.6599 7.79732 71.7099 7.79732 71.7399C7.55932 73.0147 8.16738 74.2982 9.30465 74.9214C10.4419 75.5446 11.8509 75.3665 12.7973 74.4799C13.1207 74.1595 13.3669 73.7697 13.5173 73.3399C13.5413 73.2916 13.5614 73.2415 13.5773 73.1899C13.6362 72.8344 13.8912 72.5428 14.2357 72.437C14.5803 72.3313 14.955 72.4295 15.2032 72.6908C15.4515 72.952 15.5305 73.3313 15.4073 73.6699C15.2637 74.2222 15.595 74.7863 16.1473 74.9299C16.6996 75.0735 17.2637 74.7422 17.4073 74.1899C17.4073 74.1233 17.4073 74.0566 17.4073 73.9899C17.6056 72.4851 16.6486 71.0693 15.1784 70.6922C13.7081 70.315 12.1879 71.0955 11.6373 72.5099V72.5899C11.5988 72.9643 11.343 73.2806 10.985 73.3965C10.627 73.5125 10.2343 73.4062 9.98366 73.1255C9.73303 72.8448 9.67172 72.4426 9.82732 72.0999Z"
        fill="#CDDAE7" />
    <rect x="42.8689" y="117.207" width="5.19" height="5.19" transform="rotate(43.99 42.8689 117.207)" fill="#CDDAE7" />
    <path fill-rule="evenodd" clip-rule="evenodd"
        d="M35.6735 25.5009L34.0574 22.8074L35.5825 20.0531L38.7237 20L40.3474 22.6935L38.8223 25.4478L35.6735 25.5009Z"
        fill="#CDDAE7" />
    <defs>
        <filter id="filter0_d_4451_11616" x="14.166" y="37" width="135" height="85" filterUnits="userSpaceOnUse"
            color-interpolation-filters="sRGB">
            <feFlood flood-opacity="0" result="BackgroundImageFix" />
            <feColorMatrix in="SourceAlpha" type="matrix" values="0 0 0 0 0 0 0 0 0 0 0 0 0 0 0 0 0 0 127 0"
                result="hardAlpha" />
            <feOffset dx="2" dy="8" />
            <feGaussianBlur stdDeviation="8" />
            <feComposite in2="hardAlpha" operator="out" />
            <feColorMatrix type="matrix" values="0 0 0 0 0.0666667 0 0 0 0 0.0941177 0 0 0 0 0.152941 0 0 0 0.1 0" />
            <feBlend mode="normal" in2="BackgroundImageFix" result="effect1_dropShadow_4451_11616" />
            <feBlend mode="normal" in="SourceGraphic" in2="effect1_dropShadow_4451_11616" result="shape" />
        </filter>
    </defs>
</svg>