<svg width="375" height="812" viewBox="0 0 375 812" fill="none" xmlns="http://www.w3.org/2000/svg">
    <path
        d="M746 734.893V734.027H721.395L736.879 686.37L696.323 656.92L736.879 627.471L721.395 579.814H746V578.948H721.115L705.733 531.626L746.009 502.372V501.31L720.947 483.111H689.969L680.439 453.792L680.392 453.662L655.33 435.463L664.861 406.144L664.908 406.014L655.339 376.565L680.289 358.44L680.401 358.357L689.969 328.907H720.947L746.009 310.709V309.647L705.733 280.393L716.867 246.147L746.009 224.978V223.916L705.733 194.662L721.115 147.34H746V146.474H721.395L732.481 112.358L732.528 112.228L721.395 77.9822H746V77.116H721.115L705.733 29.794L746.009 0.540185V0.00931353H745.273L705.454 28.9278L696.053 0.00931353H695.15L704.727 29.4587L679.777 47.5828L679.665 47.6666L670.088 77.116H639.11L614.048 95.3147L589.098 77.1905L588.986 77.1067H558.008L548.431 47.6573L523.369 29.4587L532.891 0.130389L532.937 0H532.033L522.633 28.9185L482.813 0H481.351L441.531 28.9185L432.131 0H431.227L440.805 29.4494L400.529 58.7032L360.253 29.4494L369.83 0H368.927L359.526 28.9185L319.697 0H318.234L278.415 28.9185L269.015 0H268.111L277.688 29.4494L252.738 47.5735L252.627 47.6573L243.049 77.1067H212.071L187.009 95.3053L162.059 77.1812L161.947 77.0974H130.97L121.392 47.648L96.3302 29.4494L105.852 0.130389L105.898 0H104.995L95.5942 28.9185L55.7747 0H54.312L14.4926 28.9185L5.09207 0H4.18835L13.7659 29.4494L-26.5101 58.7032L-66.786 29.4494L-57.2085 0H-58.1122L-67.5127 28.9185L-107.341 0H-108.804L-148.624 28.9185L-158.024 0H-158.928L-149.35 29.4494L-174.3 47.5735L-174.412 47.6573L-183.99 77.1067H-214.968L-240.029 95.3053L-264.979 77.1812L-265.091 77.0974H-296.069L-305.647 47.648L-330.709 29.4494L-321.187 0.130389L-321.14 0H-322.044L-331.445 28.9185L-371.264 0H-372V0.530871L-331.724 29.7847L-347.106 77.1067H-372V77.9729H-347.395L-358.528 112.219L-347.395 146.465H-372V147.331H-347.106L-331.724 194.653L-372 223.897V224.959L-342.857 246.129L-331.724 280.374L-372 309.628V310.69L-347.05 328.814L-346.938 328.898H-315.96L-306.383 358.347L-281.321 376.546L-290.852 405.865L-290.898 405.995L-281.321 435.445L-306.271 453.569L-306.383 453.653L-315.96 483.102H-346.938L-372 501.301V502.362L-331.724 531.616L-347.106 578.938H-372V579.804H-347.395L-362.888 627.462L-322.333 656.911L-362.888 686.361L-347.395 734.018H-372V734.884H-347.106L-331.724 782.206L-372 811.469V812H-371.264L-331.445 783.082L-322.044 812H-321.14L-330.718 782.551L-305.768 764.427L-305.656 764.343L-296.078 734.893H-265.101L-240.039 716.695L-215.089 734.819L-214.977 734.903H-183.999L-174.421 764.352L-149.36 782.551L-158.891 811.87L-158.937 812H-158.033L-148.633 783.082L-108.814 812H-107.351L-67.5314 783.082L-58.1308 812H-57.2271L-66.8047 782.551L-26.5287 753.297L13.7473 782.551L4.16971 812H5.07343L14.4739 783.082L54.2934 812H55.7561L95.5755 783.082L104.976 812H105.88L96.3022 782.551L121.252 764.427L121.364 764.343L130.942 734.893H161.919L186.981 716.695L211.931 734.819L212.043 734.903H243.021L252.599 764.352L277.66 782.551L268.13 811.87L268.083 812H268.987L278.387 783.082L318.207 812H319.669L359.489 783.082L368.889 812H369.793L360.215 782.551L400.491 753.297L440.767 782.551L431.199 812H432.103L441.503 783.082L481.323 812H482.785L522.605 783.082L532.005 812H532.909L523.332 782.551L548.282 764.427L548.393 764.343L557.971 734.893H588.949L614.011 716.695L638.961 734.819L639.073 734.903H670.05L679.581 764.222L679.628 764.352L704.69 782.551L695.159 811.87L695.112 812H696.016L705.417 783.082L745.236 812H745.972V811.469L705.696 782.215L721.078 734.893H745.963H746ZM735.863 627.145L695.588 656.39L666.445 635.22L655.312 600.974L684.454 579.814H720.472L735.854 627.136L735.863 627.145ZM482.525 656.92L491.925 628.002L531.745 656.92L491.925 685.839L482.525 656.92ZM506.683 734.027H457.463L466.863 705.109L491.469 687.236L506.683 734.027ZM309.104 685.839L269.285 656.92L309.104 628.002L318.505 656.92L309.104 685.839ZM309.561 687.236L334.166 705.109L343.567 734.027H294.347L309.551 687.236H309.561ZM55.4952 656.92L64.8958 628.002L104.715 656.92L64.8958 685.839L55.4952 656.92ZM79.644 734.027H30.4241L39.8246 705.109L64.4299 687.236L79.6347 734.027H79.644ZM-117.925 685.839L-157.745 656.92L-117.925 628.002L-108.525 656.92L-117.925 685.839ZM-117.478 687.236L-92.8727 705.109L-83.4722 734.027H-132.692L-117.487 687.236H-117.478ZM-280.305 600.648L-264.924 553.326H-215.145L-199.763 600.648L-240.039 629.902L-280.315 600.648H-280.305ZM-240.775 630.433L-269.917 651.602L-281.051 685.848L-320.87 656.93L-291.728 635.76L-280.594 601.514L-240.775 630.433ZM-249.16 221.466L-264.653 173.809H-214.53L-199.036 126.152L-159.217 155.07L-199.772 184.52L-184.278 232.177H-234.402L-249.896 279.834L-289.715 250.916L-249.16 221.466ZM-290.442 250.385L-319.584 229.215L-330.718 194.969L-301.575 173.809H-265.557L-250.175 221.131L-290.451 250.385H-290.442ZM-108.534 155.08L-117.935 183.998L-157.754 155.08L-117.935 126.161L-108.534 155.08ZM-132.683 77.9729H-83.4628L-92.8634 106.891L-117.469 124.764L-132.673 77.9729H-132.683ZM64.8864 126.161L104.706 155.08L64.8864 183.998L55.4859 155.08L64.8864 126.161ZM64.4392 124.764L39.8339 106.891L30.4334 77.9729H79.6534L64.4485 124.764H64.4392ZM318.505 155.08L309.104 183.998L269.285 155.08L309.104 126.161L318.505 155.08ZM294.356 77.9729H343.576L334.175 106.891L309.57 124.764L294.365 77.9729H294.356ZM491.925 126.161L531.745 155.08L491.925 183.998L482.525 155.08L491.925 126.161ZM491.478 124.764L466.873 106.891L457.472 77.9729H506.692L491.487 124.764H491.478ZM623.16 221.466L663.715 250.916L623.896 279.834L608.402 232.177H558.278L573.772 184.52L533.217 155.07L573.036 126.152L588.53 173.809H638.653L623.16 221.466ZM639.557 173.818H675.575L704.718 194.979L693.584 229.225L664.442 250.394L624.175 221.14L639.557 173.818ZM344.023 483.111L318.961 501.31L294.011 483.186L293.899 483.102H262.921L253.344 453.653L228.282 435.454L237.813 406.135L237.86 406.005L228.282 376.555L253.232 358.431L253.344 358.347L262.912 328.898H293.89L318.952 310.699L343.902 328.823L344.014 328.907H374.992L384.56 358.357L409.622 376.555L400.091 405.874L400.044 406.005L409.622 435.454L384.672 453.578L384.56 453.662L374.982 483.111H344.004H344.023ZM374.721 483.968L359.517 530.759L319.697 501.841L344.303 483.968H374.721ZM30.0887 483.195L29.9769 483.111H-1.00104L-10.5786 453.662L-35.6404 435.463L-26.1094 406.144L-26.0629 406.014L-35.6404 376.565L-10.6904 358.44L-10.5786 358.357L-1.00104 328.907H29.9769L55.0387 310.709L79.9887 328.833L80.1006 328.917H111.078L120.656 358.366L145.718 376.565L136.187 405.884L136.14 406.014L145.718 435.463L120.768 453.587L120.656 453.671L111.078 483.121H80.1006L55.0387 501.319L30.0887 483.195ZM54.3027 501.841L14.4832 530.759L-0.721527 483.968H29.6974L54.3027 501.841ZM-178.223 553.326L-149.08 532.156L-133.866 578.948H-169.884L-199.027 600.108L-214.232 553.317H-178.213L-178.223 553.326ZM-214.52 552.46L-225.654 518.214L-214.52 483.968H-164.741L-149.36 531.29L-178.502 552.46H-214.52ZM-164.117 483.111H-214.241L-199.036 436.32L-158.481 465.77L-117.925 436.32L-102.432 483.978H-52.3079L-67.5127 530.769L-108.068 501.319L-148.624 530.769L-164.117 483.111ZM-172.866 267.298L-183.999 301.544H-220.017L-249.16 280.374L-233.778 233.052H-183.999L-172.866 267.298ZM-183.086 233.052H-133.866L-144.999 267.298L-133.866 301.544H-183.086L-171.953 267.298L-183.086 233.052ZM-183.375 302.401H-133.596L-118.214 349.723L-158.49 378.977L-198.766 349.723L-183.384 302.401H-183.375ZM-51.1247 328.889H-1.90475L-11.3053 357.807L-35.9106 375.68L-51.1247 328.889ZM-26.9759 406.005L-36.3764 434.923L-76.1959 406.005L-36.3764 377.086L-26.9759 406.005ZM-36.6559 376.22L-76.9319 405.474L-106.074 384.304L-117.208 350.058L-88.0653 328.898H-52.047L-36.6653 376.22H-36.6559ZM-128.611 400.677L-157.754 379.508L-117.935 350.589L-106.801 384.835L-77.6586 406.005L-117.478 434.923L-128.611 400.677ZM-118.205 435.454L-158.481 464.708L-198.757 435.454L-187.623 401.208L-158.481 380.039L-129.338 401.208L-118.205 435.454ZM-88.3355 328.032L-117.478 349.192L-132.683 302.401H-96.6646L-67.522 281.231L-52.3172 328.023H-88.3355V328.032ZM-159.217 379.508L-188.359 400.677L-199.493 434.923L-239.312 406.005L-210.17 384.835L-199.036 350.589L-159.217 379.508ZM-101.817 483.111L-117.199 435.789L-76.9225 406.536L-36.6466 435.789L-52.0284 483.111H-101.807H-101.817ZM-35.9199 436.311L-11.3146 454.184L-1.91406 483.102H-51.134L-35.9292 436.311H-35.9199ZM-0.721527 328.032L14.4832 281.241L54.3027 310.159L29.6974 328.032H-0.721527ZM277.959 279.844L248.928 258.758L248.816 258.674H212.798L228.003 211.883L257.033 232.969L257.145 233.052H293.163L277.959 279.844ZM278.406 281.241L318.225 310.159L293.62 328.032H263.201L278.406 281.241ZM248.537 259.54L277.679 280.7L262.297 328.023H212.518L201.385 293.777L212.518 259.531H248.537V259.54ZM145.997 375.689L121.392 357.816L111.991 328.898H161.211L145.997 375.689ZM162.115 328.889H211.894L227.276 376.211L187 405.465L146.724 376.211L162.106 328.889H162.115ZM146.445 377.077L186.264 405.995L146.445 434.914L137.044 405.995L146.445 377.077ZM161.202 483.111H111.982L121.383 454.193L145.988 436.32L161.202 483.111ZM146.724 435.78L187 406.526L227.276 435.78L211.894 483.102H162.115L146.733 435.78H146.724ZM228.003 436.311L252.608 454.184L262.008 483.102H212.789L227.993 436.311H228.003ZM227.555 434.923L187.736 406.005L227.555 377.086L236.956 406.005L227.555 434.923ZM212.798 328.889H262.018L252.617 357.807L228.012 375.68L212.798 328.889ZM200.481 293.786L211.615 328.032H162.395L173.528 293.786L162.395 259.54H211.615L200.481 293.786ZM172.615 293.786L161.482 328.032H111.703L96.3209 280.71L125.463 259.549H161.482L172.615 293.795V293.786ZM125.184 258.674L96.0414 279.834L80.8365 233.043H116.855L145.997 211.873L161.202 258.665H125.184V258.674ZM110.799 328.032H80.38L55.7747 310.159L95.5942 281.241L110.799 328.032ZM80.38 483.968H110.799L95.5942 530.759L55.7747 501.841L80.38 483.968ZM96.0414 532.156L125.072 553.242L125.184 553.326H161.202L145.997 600.117L116.967 579.031L116.855 578.948H80.8365L96.0414 532.156ZM125.463 552.46L96.3209 531.29L111.703 483.968H161.482L172.615 518.214L161.482 552.46H125.463ZM173.519 518.214L162.385 483.968H211.605L200.472 518.214L211.605 552.46H162.385L173.519 518.214ZM201.385 518.214L212.518 483.968H262.297L277.679 531.29L248.537 552.46H212.518L201.385 518.214ZM248.816 553.326L277.959 532.156L293.163 578.948H257.145L228.003 600.108L212.798 553.317H248.816V553.326ZM263.201 483.968H293.62L318.225 501.841L278.406 530.759L263.201 483.968ZM319.697 310.159L359.517 281.241L374.721 328.032H344.303L319.697 310.159ZM545.962 267.298L557.095 301.544H507.875L519.009 267.298L507.875 233.052H557.095L545.962 267.298ZM557.999 233.052H607.778L623.16 280.374L594.017 301.544H557.999L546.866 267.298L557.999 233.052ZM557.375 302.401L572.757 349.723L532.481 378.977L492.205 349.723L507.586 302.401H557.365H557.375ZM503.338 401.208L532.481 380.039L561.623 401.208L572.757 435.454L532.481 464.708L492.205 435.454L503.338 401.208ZM491.478 434.923L451.659 406.005L480.801 384.835L491.934 350.589L531.754 379.508L502.611 400.677L491.478 434.923ZM562.359 400.677L533.217 379.508L573.036 350.589L584.169 384.835L613.312 406.005L573.493 434.923L562.359 400.677ZM491.478 349.192L462.447 328.106L462.335 328.023H426.317L441.522 281.231L470.553 302.317L470.664 302.401H506.683L491.478 349.192ZM462.056 328.889L491.198 350.049L480.065 384.295L450.922 405.465L410.647 376.211L426.028 328.889H462.047H462.056ZM450.186 406.005L410.367 434.923L400.966 406.005L410.367 377.086L450.186 406.005ZM409.92 375.689L385.315 357.816L375.914 328.898H425.134L409.929 375.689H409.92ZM385.305 454.193L409.911 436.32L425.115 483.111H375.895L385.296 454.193H385.305ZM410.656 435.78L450.932 406.526L491.208 435.78L475.826 483.102H426.047L410.665 435.78H410.656ZM476.441 483.968L491.934 436.311L532.49 465.76L573.045 436.311L588.25 483.102H538.126L522.633 530.759L482.077 501.31L441.522 530.759L426.317 483.968H476.441ZM523.08 532.156L552.111 553.242L552.223 553.326H588.241L573.036 600.117L544.005 579.031L543.893 578.948H507.875L523.08 532.156ZM552.502 552.46L523.36 531.29L538.741 483.968H588.52L599.654 518.214L588.52 552.46H552.502ZM600.557 518.214L589.424 483.968H638.644L627.51 518.214L638.644 552.46H589.424L600.557 518.214ZM589.145 483.111L573.763 435.789L614.039 406.536L654.315 435.789L638.933 483.111H589.154H589.145ZM584.896 384.304L573.763 350.058L602.905 328.898H638.923L654.305 376.22L614.029 405.474L584.887 384.304H584.896ZM602.626 328.032L573.483 349.192L558.278 302.401H594.297L623.439 281.231L638.644 328.023H602.626V328.032ZM572.757 184.864L557.375 232.186H507.596L492.214 184.864L532.49 155.61L572.766 184.864H572.757ZM506.683 232.186H457.463L466.863 203.268L491.469 185.395L506.683 232.186ZM506.962 233.052L518.096 267.298L506.962 301.544H470.944L441.801 280.374L457.183 233.052H506.962ZM441.075 279.844L401.255 250.925L425.861 233.052H456.28L441.075 279.844ZM440.786 280.7L425.404 328.023H375.625L360.243 280.7L400.519 251.447L440.795 280.7H440.786ZM359.964 279.844L344.759 233.052H375.178L399.783 250.925L359.964 279.844ZM359.237 280.374L318.961 309.628L278.685 280.374L294.067 233.052H343.846L359.228 280.374H359.237ZM294.356 232.186L309.561 185.395L334.166 203.268L343.567 232.186H294.347H294.356ZM308.825 184.864L293.443 232.186H257.425L228.282 211.017L239.416 176.771L268.558 155.601L308.834 184.855L308.825 184.864ZM238.68 176.24L227.546 210.486L187.727 181.567L216.869 160.407L228.003 126.161L267.822 155.08L238.68 176.249V176.24ZM227.276 211.352L211.894 258.674H162.115L146.733 211.352L187.009 182.098L227.285 211.352H227.276ZM146.445 210.486L135.311 176.24L106.169 155.07L145.988 126.152L157.121 160.398L186.264 181.558L146.445 210.476V210.486ZM134.584 176.78L145.718 211.026L116.575 232.196H80.5571L65.1752 184.874L105.451 155.62L134.594 176.789L134.584 176.78ZM79.644 232.186H30.4241L39.8246 203.268L64.4299 185.395L79.6347 232.186H79.644ZM79.9235 233.052L95.3053 280.374L55.0294 309.628L14.7534 280.374L30.1353 233.052H79.9142H79.9235ZM14.0361 279.844L-25.7834 250.925L-1.17807 233.052H29.2409L14.0361 279.844ZM13.7566 280.7L-1.62524 328.023H-51.4042L-66.786 280.7L-26.5101 251.447L13.7659 280.7H13.7566ZM-67.0748 279.844L-82.2796 233.052H-51.8607L-27.2554 250.925L-67.0748 279.844ZM-67.8015 280.374L-96.9441 301.544H-132.962L-144.096 267.298L-132.962 233.052H-83.1833L-67.8015 280.374ZM-132.683 232.186L-117.478 185.395L-92.8727 203.268L-83.4722 232.186H-132.692H-132.683ZM-118.205 184.864L-133.587 232.186H-183.365L-198.747 184.864L-158.471 155.61L-118.195 184.864H-118.205ZM-249.439 281.241L-220.409 302.326L-220.297 302.41H-184.278L-199.483 349.201L-228.514 328.116L-228.626 328.032H-264.644L-249.439 281.241ZM-228.905 328.889L-199.763 350.049L-210.896 384.295L-240.039 405.465L-280.315 376.211L-264.933 328.889H-228.915H-228.905ZM-199.763 435.78L-215.145 483.102H-264.924L-280.305 435.78L-240.029 406.526L-199.753 435.78H-199.763ZM-215.424 483.968L-226.558 518.214L-215.424 552.46H-264.644L-253.511 518.214L-264.644 483.968H-215.424ZM-199.483 601.514L-188.35 635.76L-159.207 656.93L-199.027 685.848L-210.16 651.602L-239.303 630.433L-199.483 601.514ZM-187.623 635.22L-198.757 600.974L-169.614 579.814H-133.596L-118.214 627.136L-158.49 656.38L-187.632 635.211L-187.623 635.22ZM-132.683 579.814H-83.4628L-92.8634 608.732L-117.469 626.605L-132.673 579.814H-132.683ZM-132.962 578.957L-148.344 531.635L-108.068 502.381L-67.7922 531.635L-83.174 578.957H-132.953H-132.962ZM-67.0748 532.156L-27.2554 561.075L-51.8607 578.948H-82.2796L-67.0748 532.156ZM-66.7953 531.3L-51.4135 483.978H-1.63458L13.7473 531.3L-26.5287 560.553L-66.8047 531.3H-66.7953ZM14.0361 532.156L29.2409 578.948H-1.17807L-25.7834 561.075L14.0361 532.156ZM14.7628 531.626L55.0387 502.372L95.3147 531.626L79.9328 578.948H30.1539L14.7721 531.626H14.7628ZM79.644 579.814L64.4392 626.605L39.8339 608.732L30.4334 579.814H79.6534H79.644ZM65.1752 627.145L80.5571 579.823H116.575L145.718 600.983L134.584 635.229L105.442 656.399L65.1659 627.154L65.1752 627.145ZM135.32 635.76L146.454 601.514L186.273 630.433L157.131 651.602L145.997 685.848L106.178 656.93L135.32 635.76ZM146.724 600.648L162.106 553.326H211.885L227.267 600.648L186.991 629.902L146.715 600.648H146.724ZM227.555 601.514L238.689 635.76L267.831 656.93L228.012 685.848L216.879 651.602L187.736 630.433L227.555 601.514ZM239.416 635.22L228.282 600.974L257.425 579.814H293.443L308.825 627.136L268.549 656.38L239.406 635.211L239.416 635.22ZM294.356 579.814H343.576L334.175 608.732L309.57 626.605L294.365 579.814H294.356ZM294.076 578.957L278.695 531.635L318.971 502.381L359.247 531.635L343.865 578.957H294.086H294.076ZM359.964 532.156L399.783 561.075L375.178 578.948H344.759L359.964 532.156ZM360.243 531.3L375.625 483.978H425.404L440.786 531.3L400.51 560.553L360.234 531.3H360.243ZM441.075 532.156L456.28 578.948H425.861L401.255 561.075L441.075 532.156ZM441.801 531.626L482.077 502.372L522.353 531.626L506.972 578.948H457.193L441.811 531.626H441.801ZM506.683 579.814L491.478 626.605L466.873 608.732L457.472 579.814H506.692H506.683ZM492.205 627.145L507.586 579.823H543.605L572.747 600.983L561.614 635.229L532.471 656.399L492.195 627.154L492.205 627.145ZM562.359 635.76L573.493 601.514L613.312 630.433L584.169 651.602L573.036 685.848L533.217 656.93L562.359 635.76ZM573.763 600.648L589.145 553.326H638.923L654.305 600.648L614.029 629.902L573.753 600.648H573.763ZM654.594 601.514L665.681 635.63L665.728 635.76L694.87 656.93L655.051 685.848L643.917 651.602L614.775 630.433L654.594 601.514ZM720.202 578.957H684.184L655.041 600.117L639.837 553.326H675.855L704.997 532.156L720.202 578.948V578.957ZM720.659 483.968L745.264 501.841L705.444 530.759L690.24 483.968H720.659ZM704.718 531.3L675.575 552.469H639.557L628.424 518.223L639.557 483.978H689.336L704.718 531.3ZM679.656 454.193L689.057 483.111H639.837L655.041 436.32L679.647 454.193H679.656ZM663.985 406.005L654.585 434.923L614.765 406.005L654.585 377.086L663.985 406.005ZM679.656 357.816L655.051 375.689L639.846 328.898H689.066L679.665 357.816H679.656ZM689.336 328.032H639.557L624.175 280.71L664.451 251.456L704.727 280.71L689.345 328.032H689.336ZM745.264 310.159L720.659 328.032H690.24L705.444 281.241L745.264 310.159ZM745.264 224.428L716.233 245.514L716.121 245.598L704.988 279.844L665.169 250.925L694.199 229.839L694.311 229.755L705.444 195.51L745.264 224.428ZM704.997 194.113L675.855 172.952H639.837L655.041 126.161L684.184 147.331H720.202L704.997 194.122V194.113ZM680.383 48.1882L704.988 30.3155L720.193 77.1067H670.973L680.373 48.1882H680.383ZM670.703 77.9729H720.482L731.615 112.219L720.482 146.465H684.463L655.321 125.295L670.703 77.9729ZM639.38 77.9729H669.799L654.594 124.764L614.775 95.8455L639.38 77.9729ZM614.039 96.3764L654.315 125.63L638.933 172.952H589.154L573.772 125.63L614.048 96.3764H614.039ZM588.697 77.9729L613.303 95.8455L573.483 124.764L558.278 77.9729H588.697ZM572.757 125.295L532.481 154.549L492.205 125.295L507.586 77.9729H557.365L572.747 125.295H572.757ZM523.08 30.3155L547.685 48.1882L557.086 77.1067H507.866L523.071 30.3155H523.08ZM482.077 0.530871L522.353 29.7847L506.972 77.1067H457.193L441.811 29.7847L482.077 0.530871ZM441.075 30.3155L456.28 77.1067H425.861L401.255 59.234L441.075 30.3155ZM400.519 59.7649L425.469 77.889L425.581 77.9729H456.559L466.127 107.422L491.189 125.621L481.658 154.94L481.612 155.07L491.189 184.52L466.239 202.644L466.127 202.728L456.55 232.177H425.572L400.51 250.376L375.56 232.251L375.448 232.168H344.47L334.902 202.718L309.84 184.52L319.371 155.201L319.418 155.07L309.84 125.621L334.79 107.497L334.902 107.413L344.47 77.9636H375.448L400.51 59.7649H400.519ZM359.964 30.3155L399.783 59.234L375.178 77.1067H344.759L359.964 30.3155ZM318.961 0.530871L359.237 29.7847L343.855 77.1067H294.076L278.695 29.7847L318.961 0.530871ZM253.344 48.1882L277.949 30.3155L293.163 77.1067H243.943L253.344 48.1882ZM243.664 77.9729H293.443L308.825 125.295L268.549 154.539L228.273 125.286L243.655 77.9636L243.664 77.9729ZM212.341 77.9729H242.76L227.555 124.764L187.736 95.8455L212.341 77.9729ZM187 96.3764L227.276 125.63L216.143 159.876L187 181.036L157.857 159.876L146.724 125.63L187 96.3764ZM161.659 77.9729L186.264 95.8455L146.445 124.764L131.24 77.9729H161.659ZM145.718 125.295L105.442 154.549L65.1659 125.295L80.5477 77.9729H130.327L145.708 125.295H145.718ZM96.0414 30.3155L120.647 48.1882L130.047 77.1067H80.8272L96.032 30.3155H96.0414ZM55.0387 0.530871L95.3147 29.7847L79.9328 77.1067H30.1539L14.7721 29.7847L55.0387 0.530871ZM14.0361 30.3155L29.2409 77.1067H-1.17807L-25.7834 59.234L14.0361 30.3155ZM-26.5194 59.7649L-1.56934 77.889L-1.45755 77.9729H29.5204L39.0979 107.422L64.1597 125.621L54.6288 154.94L54.5822 155.07L64.1597 184.52L39.2097 202.644L39.0979 202.728L29.5204 232.177H-1.45755L-26.5194 250.376L-51.4694 232.251L-51.5812 232.168H-82.5591L-92.1367 202.718L-117.199 184.52L-107.668 155.201L-107.621 155.07L-117.199 125.621L-92.2485 107.497L-92.1367 107.413L-82.5591 77.9636H-51.5812L-26.5194 59.7649ZM-67.0748 30.3155L-27.2554 59.234L-51.8607 77.1067H-82.2796L-67.0748 30.3155ZM-108.077 0.530871L-67.8015 29.7847L-83.1833 77.1067H-132.962L-148.344 29.7847L-108.077 0.530871ZM-173.695 48.1882L-149.089 30.3155L-133.875 77.1067H-183.095L-173.695 48.1882ZM-183.375 77.9729H-133.596L-118.214 125.295L-158.49 154.549L-198.766 125.295L-183.384 77.9729H-183.375ZM-214.697 77.9729H-184.278L-199.483 124.764L-239.303 95.8455L-214.697 77.9729ZM-240.039 96.3764L-199.763 125.63L-215.145 172.952H-264.924L-280.305 125.63L-240.029 96.3764H-240.039ZM-265.38 77.9729L-240.775 95.8455L-280.594 124.764L-295.799 77.9729H-265.38ZM-330.997 30.3155L-306.392 48.1882L-296.992 77.1067H-346.202L-330.997 30.3155ZM-357.615 112.219L-346.482 77.9729H-296.703L-281.321 125.295L-310.463 146.465H-346.482L-357.615 112.219ZM-346.202 147.321H-310.184L-281.041 126.152L-265.837 172.943H-301.855L-330.997 194.103L-346.202 147.312V147.321ZM-342.121 245.598L-371.264 224.428L-331.445 195.51L-320.311 229.755L-291.169 250.925L-330.988 279.844L-342.121 245.598ZM-346.659 328.032L-371.264 310.159L-331.445 281.241L-316.24 328.032H-346.659ZM-330.718 280.7L-290.442 251.447L-250.166 280.7L-265.548 328.023H-315.327L-330.709 280.7H-330.718ZM-305.656 357.816L-315.057 328.898H-265.837L-281.041 375.689L-305.647 357.816H-305.656ZM-289.985 406.005L-280.585 377.086L-240.765 406.005L-280.585 434.923L-289.985 406.005ZM-305.656 454.193L-281.051 436.32L-265.846 483.111H-315.066L-305.665 454.193H-305.656ZM-315.336 483.968H-265.557L-254.424 518.214L-265.557 552.46H-301.575L-330.718 531.29L-315.336 483.968ZM-371.264 501.841L-346.659 483.968H-316.24L-331.445 530.759L-371.264 501.841ZM-330.997 532.156L-301.967 553.242L-301.855 553.326H-265.837L-281.041 600.117L-310.072 579.031L-310.184 578.948H-346.202L-330.997 532.156ZM-361.863 627.145L-346.482 579.823H-310.463L-281.321 600.983L-292.454 635.229L-321.597 656.399L-361.873 627.154L-361.863 627.145ZM-306.383 763.812L-330.988 781.685L-346.202 734.893H-296.982L-306.383 763.812ZM-296.703 734.027H-346.482L-361.863 686.705L-321.588 657.451L-281.312 686.705L-296.693 734.027H-296.703ZM-265.38 734.027H-295.799L-280.594 687.236L-240.775 716.155L-265.38 734.027ZM-240.039 715.624L-280.315 686.37L-269.181 652.124L-240.039 630.954L-210.896 652.124L-199.763 686.37L-240.039 715.624ZM-214.697 734.027L-239.303 716.155L-199.483 687.236L-184.278 734.027H-214.697ZM-198.757 686.705L-158.481 657.451L-118.205 686.705L-133.587 734.027H-183.365L-198.747 686.705H-198.757ZM-149.08 781.685L-173.685 763.812L-183.086 734.893H-133.866L-149.08 781.685ZM-108.077 811.469L-148.353 782.215L-132.972 734.893H-83.1927L-67.8109 782.215L-108.087 811.469H-108.077ZM-67.0748 781.685L-82.2796 734.893H-51.8607L-27.2554 752.766L-67.0748 781.685ZM-26.5194 752.235L-51.4694 734.111L-51.5812 734.027H-82.5591L-92.1367 704.578L-117.199 686.379L-107.668 657.06L-107.621 656.93L-117.199 627.48L-92.2485 609.356L-92.1367 609.272L-82.5591 579.823H-51.5812L-26.5194 561.624L-1.56934 579.749L-1.45755 579.832H29.5204L39.0979 609.282L64.1597 627.48L54.6288 656.799L54.5822 656.93L64.1597 686.379L39.2097 704.503L39.0979 704.587L29.5204 734.036H-1.45755L-26.5194 752.235ZM14.0361 781.685L-25.7834 752.766L-1.17807 734.893H29.2409L14.0361 781.685ZM55.0387 811.469L14.7628 782.215L30.1446 734.893H79.9235L95.3053 782.215L55.0294 811.469H55.0387ZM120.656 763.812L96.0507 781.685L80.8365 734.893H130.057L120.656 763.812ZM130.336 734.027H80.5571L65.1752 686.705L105.451 657.451L145.727 686.705L130.345 734.027H130.336ZM161.659 734.027H131.24L146.445 687.236L186.264 716.155L161.659 734.027ZM187 715.624L146.724 686.37L157.857 652.124L187 630.954L216.143 652.124L227.276 686.37L187 715.624ZM212.341 734.027L187.736 716.155L227.555 687.236L242.76 734.027H212.341ZM228.282 686.705L268.558 657.451L308.834 686.705L293.452 734.027H243.673L228.291 686.705H228.282ZM277.959 781.685L253.353 763.812L243.953 734.893H293.173L277.968 781.685H277.959ZM318.961 811.469L278.685 782.215L294.067 734.893H343.846L359.228 782.215L318.952 811.469H318.961ZM359.964 781.685L344.759 734.893H375.178L399.783 752.766L359.964 781.685ZM400.519 752.235L375.569 734.111L375.458 734.027H344.48L334.911 704.578L309.849 686.379L319.38 657.06L319.427 656.93L309.849 627.48L334.8 609.356L334.911 609.272L344.48 579.823H375.458L400.519 561.624L425.469 579.749L425.581 579.832H456.559L466.127 609.282L491.189 627.48L481.658 656.799L481.612 656.93L491.189 686.379L466.239 704.503L466.127 704.587L456.55 734.036H425.572L400.51 752.235H400.519ZM441.075 781.685L401.255 752.766L425.861 734.893H456.28L441.075 781.685ZM482.077 811.469L441.801 782.215L457.183 734.893H506.962L522.344 782.215L482.068 811.469H482.077ZM547.695 763.812L523.089 781.685L507.875 734.893H557.095L547.695 763.812ZM557.375 734.027H507.596L492.214 686.705L532.49 657.451L572.766 686.705L557.384 734.027H557.375ZM588.697 734.027H558.278L573.483 687.236L613.303 716.155L588.697 734.027ZM614.039 715.624L573.763 686.37L584.896 652.124L614.039 630.954L643.181 652.124L654.315 686.37L614.039 715.624ZM639.38 734.027L614.775 716.155L654.594 687.236L669.808 734.027H639.389H639.38ZM704.997 781.685L680.392 763.812L670.991 734.893H720.211L705.007 781.685H704.997ZM670.703 734.027L655.321 686.705L695.597 657.451L735.873 686.705L720.491 734.027H670.712H670.703Z"
        fill="#D9BB7F" />
</svg>