<svg width="18" height="12" viewBox="0 0 18 12" fill="none" xmlns="http://www.w3.org/2000/svg">
    <path
        d="M0.75 11.25V0H2.25V7.5H8.25V1.5H14.25C15.075 1.5 15.7813 1.79375 16.3688 2.38125C16.9563 2.96875 17.25 3.675 17.25 4.5V11.25H15.75V9H2.25V11.25H0.75ZM5.25 6.75C4.625 6.75 4.09375 6.53125 3.65625 6.09375C3.21875 5.65625 3 5.125 3 4.5C3 3.875 3.21875 3.34375 3.65625 2.90625C4.09375 2.46875 4.625 2.25 5.25 2.25C5.875 2.25 6.40625 2.46875 6.84375 2.90625C7.28125 3.34375 7.5 3.875 7.5 4.5C7.5 5.125 7.28125 5.65625 6.84375 6.09375C6.40625 6.53125 5.875 6.75 5.25 6.75ZM9.75 7.5H15.75V4.5C15.75 4.0875 15.6033 3.7345 15.3097 3.441C15.0162 3.1475 14.663 3.0005 14.25 3H9.75V7.5ZM5.25 5.25C5.4625 5.25 5.64075 5.178 5.78475 5.034C5.92875 4.89 6.0005 4.712 6 4.5C5.9995 4.288 5.9275 4.11 5.784 3.966C5.6405 3.822 5.4625 3.75 5.25 3.75C5.0375 3.75 4.8595 3.822 4.716 3.966C4.5725 4.11 4.5005 4.288 4.5 4.5C4.4995 4.712 4.5715 4.89025 4.716 5.03475C4.8605 5.17925 5.0385 5.251 5.25 5.25Z"
        fill="#9CA3AF" />
</svg>