<svg width="16" height="16" viewBox="0 0 16 16" fill="none" xmlns="http://www.w3.org/2000/svg">
    <path fill-rule="evenodd" clip-rule="evenodd"
        d="M2.99298 1.06516C3.53951 0.700846 4.25129 0.5 5 0.5C5.74871 0.5 6.46049 0.700846 7.00702 1.06516C7.34963 1.29354 7.65629 1.61004 7.83529 2H14C14.4142 2 14.75 2.33579 14.75 2.75C14.75 3.16421 14.4142 3.5 14 3.5H7.83529C7.65629 3.88996 7.34963 4.20646 7.00702 4.43484C6.46049 4.79915 5.74871 5 5 5C4.25129 5 3.53951 4.79915 2.99298 4.43484C2.45161 4.07397 2 3.49308 2 2.75C2 2.00692 2.45161 1.42603 2.99298 1.06516ZM3.82496 2.31328C3.55201 2.49522 3.5 2.66433 3.5 2.75C3.5 2.83567 3.55201 3.00478 3.82496 3.18672C4.09274 3.36522 4.50596 3.5 5 3.5C5.49404 3.5 5.90726 3.36522 6.17504 3.18672C6.44799 3.00478 6.5 2.83567 6.5 2.75C6.5 2.66433 6.44799 2.49522 6.17504 2.31328C5.90726 2.13478 5.49404 2 5 2C4.50596 2 4.09274 2.13478 3.82496 2.31328ZM0.93934 6.93934C1.22064 6.65804 1.60217 6.5 2 6.5H14C14.3978 6.5 14.7794 6.65804 15.0607 6.93934C15.342 7.22065 15.5 7.60218 15.5 8V8.375C15.5 8.81709 15.3283 9.33726 15.1275 9.80793C14.9153 10.3051 14.6258 10.8476 14.3056 11.3672C13.9849 11.8873 13.6246 12.399 13.2651 12.8321C13.0238 13.1229 12.7637 13.4019 12.5 13.6252V14C12.5 14.3978 12.342 14.7794 12.0607 15.0607C11.7794 15.342 11.3978 15.5 11 15.5H5C4.60218 15.5 4.22065 15.342 3.93934 15.0607C3.65804 14.7794 3.5 14.3978 3.5 14V13.631C2.82246 13.0773 2.14732 12.1758 1.63365 11.3259C1.32156 10.8095 1.04614 10.2741 0.84619 9.78298C0.655494 9.3146 0.5 8.80729 0.5 8.375V8C0.5 7.60218 0.658035 7.22064 0.93934 6.93934ZM2 8V8.375C2 8.50521 2.06135 8.78971 2.23546 9.21735C2.40031 9.62226 2.63766 10.0871 2.91742 10.55C3.49817 11.511 4.17276 12.3174 4.6474 12.6139C4.86674 12.751 5 12.9914 5 13.25V14H11V13.25C11 12.9914 11.1332 12.7511 11.3525 12.614C11.5274 12.5047 11.7926 12.2577 12.1108 11.8742C12.4181 11.5039 12.7383 11.0512 13.0286 10.5801C13.3193 10.1085 13.5713 9.6329 13.7478 9.21919C13.9357 8.77896 14 8.49541 14 8.375V8H2Z"
        fill="white" />
</svg>