<svg width="28" height="28" viewBox="0 0 28 28" fill="none" xmlns="http://www.w3.org/2000/svg">
    <path fill-rule="evenodd" clip-rule="evenodd"
        d="M10.4999 2.3335C7.27826 2.3335 4.66659 4.94517 4.66659 8.16683V23.3335H3.49992C2.85559 23.3335 2.33325 23.8558 2.33325 24.5002C2.33325 25.1445 2.85559 25.6668 3.49992 25.6668H24.4999C25.1443 25.6668 25.6666 25.1445 25.6666 24.5002C25.6666 23.8558 25.1443 23.3335 24.4999 23.3335H23.3333V8.16683C23.3333 4.94517 20.7216 2.3335 17.4999 2.3335H10.4999ZM18.6666 23.3335C18.6666 20.7562 16.5772 18.6668 13.9999 18.6668C11.4226 18.6668 9.33325 20.7562 9.33325 23.3335H18.6666ZM9.33325 8.75016C9.33325 7.78366 10.1168 7.00016 11.0833 7.00016C12.0498 7.00016 12.8333 7.78366 12.8333 8.75016C12.8333 9.71666 12.0498 10.5002 11.0833 10.5002C10.1168 10.5002 9.33325 9.71666 9.33325 8.75016ZM11.0833 12.8335C10.1168 12.8335 9.33325 13.617 9.33325 14.5835C9.33325 15.55 10.1168 16.3335 11.0833 16.3335C12.0498 16.3335 12.8333 15.55 12.8333 14.5835C12.8333 13.617 12.0498 12.8335 11.0833 12.8335ZM15.1666 8.75016C15.1666 7.78366 15.9501 7.00016 16.9166 7.00016C17.8831 7.00016 18.6666 7.78366 18.6666 8.75016C18.6666 9.71666 17.8831 10.5002 16.9166 10.5002C15.9501 10.5002 15.1666 9.71666 15.1666 8.75016ZM16.9166 12.8335C15.9501 12.8335 15.1666 13.617 15.1666 14.5835C15.1666 15.55 15.9501 16.3335 16.9166 16.3335C17.8831 16.3335 18.6666 15.55 18.6666 14.5835C18.6666 13.617 17.8831 12.8335 16.9166 12.8335Z"
        fill="white" />
</svg>