<svg width="16" height="16" viewBox="0 0 16 16" fill="none" xmlns="http://www.w3.org/2000/svg">
    <path
        d="M2.16667 3.8335H3C3.44203 3.8335 3.86595 3.6579 4.17851 3.34534C4.49107 3.03278 4.66667 2.60886 4.66667 2.16683C4.66667 1.94582 4.75446 1.73385 4.91074 1.57757C5.06702 1.42129 5.27899 1.3335 5.5 1.3335H10.5C10.721 1.3335 10.933 1.42129 11.0893 1.57757C11.2455 1.73385 11.3333 1.94582 11.3333 2.16683C11.3333 2.60886 11.5089 3.03278 11.8215 3.34534C12.134 3.6579 12.558 3.8335 13 3.8335H13.8333C14.2754 3.8335 14.6993 4.00909 15.0118 4.32165C15.3244 4.63421 15.5 5.05814 15.5 5.50016V13.0002C15.5 13.4422 15.3244 13.8661 15.0118 14.1787C14.6993 14.4912 14.2754 14.6668 13.8333 14.6668H2.16667C1.72464 14.6668 1.30072 14.4912 0.988155 14.1787C0.675595 13.8661 0.5 13.4422 0.5 13.0002V5.50016C0.5 5.05814 0.675595 4.63421 0.988155 4.32165C1.30072 4.00909 1.72464 3.8335 2.16667 3.8335"
        stroke="white" stroke-linecap="round" stroke-linejoin="round" />
    <path
        d="M8 11.3335C9.38071 11.3335 10.5 10.2142 10.5 8.8335C10.5 7.45278 9.38071 6.3335 8 6.3335C6.61929 6.3335 5.5 7.45278 5.5 8.8335C5.5 10.2142 6.61929 11.3335 8 11.3335Z"
        stroke="white" stroke-linecap="round" stroke-linejoin="round" />
</svg>