<svg width="20" height="14" viewBox="0 0 20 14" fill="none" xmlns="http://www.w3.org/2000/svg">
    <path
        d="M19.0625 5.75C18.9453 5.55469 17.7887 5.05508 17.7887 5.05508C17.9898 4.95117 18.1273 4.92969 18.1273 4.5C18.1273 4.03125 18.125 3.875 17.8125 3.875H16.7523C16.748 3.86562 16.7434 3.85586 16.7391 3.84609C16.0547 2.35156 15.9629 1.97383 14.9422 1.46523C13.573 0.784375 11.0063 0.75 10 0.75C8.99375 0.75 6.42695 0.784375 5.05898 1.46523C4.03711 1.97305 4.0625 2.23437 3.26211 3.84609C3.26211 3.85039 3.25391 3.86172 3.24648 3.875H2.18516C1.875 3.875 1.87266 4.03125 1.87266 4.5C1.87266 4.92969 2.01016 4.95117 2.21133 5.05508C2.21133 5.05508 1.09375 5.59375 0.9375 5.75C0.78125 5.90625 0.625 7 0.625 8.875C0.625 10.75 0.78125 12.625 0.78125 12.625H1.24766C1.24766 13.1719 1.32812 13.25 1.5625 13.25H4.6875C4.92188 13.25 5 13.1719 5 12.625H15C15 13.1719 15.0781 13.25 15.3125 13.25H18.5156C18.6719 13.25 18.75 13.1328 18.75 12.625H19.2188C19.2188 12.625 19.375 10.7109 19.375 8.875C19.375 7.03906 19.1797 5.94531 19.0625 5.75ZM4.89297 7.50547C4.18153 7.58325 3.46646 7.62315 2.75078 7.625C1.95312 7.625 1.92578 7.67617 1.86953 7.17812C1.84837 6.95017 1.85506 6.72048 1.88945 6.49414L1.91406 6.375H2.03125C2.5 6.375 2.94023 6.39492 3.77148 6.63984C4.19427 6.76671 4.59192 6.96573 4.94688 7.22812C5.11719 7.35156 5.15625 7.46875 5.15625 7.46875L4.89297 7.50547ZM14.5477 10.318L14.375 10.75H5.625C5.625 10.75 5.64023 10.7262 5.42969 10.3133C5.27344 10.0078 5.46875 9.8125 5.77773 9.70156C6.37617 9.48594 8.125 8.875 10 8.875C11.875 8.875 13.6586 9.40156 14.2383 9.70156C14.4531 9.8125 14.7199 9.89062 14.5477 10.3203V10.318ZM4.50859 4.98477C4.38242 4.99205 4.25596 4.99296 4.12969 4.9875C4.23164 4.80625 4.28828 4.6043 4.38789 4.39336C4.70039 3.7293 5.05781 2.97773 5.69414 2.66094C6.61367 2.20312 8.51953 1.99687 10 1.99687C11.4805 1.99687 13.3863 2.20156 14.3059 2.66094C14.9422 2.97773 15.298 3.72969 15.6121 4.39336C15.7125 4.60625 15.7684 4.80977 15.873 4.99219C15.7949 4.99648 15.7051 4.99219 15.4906 4.98477H4.50859ZM18.0914 7.17656C18.0078 7.66406 18.0859 7.625 17.2492 7.625C16.5335 7.62315 15.8185 7.58325 15.107 7.50547C14.9957 7.48555 14.9641 7.29766 15.0531 7.22812C15.4063 6.96282 15.8045 6.76352 16.2285 6.63984C17.0598 6.39492 17.5277 6.36211 17.9898 6.37852C18.0209 6.3797 18.0504 6.39232 18.0727 6.41396C18.095 6.4356 18.1084 6.46471 18.1105 6.4957C18.1326 6.72309 18.1262 6.95234 18.0914 7.17812V7.17656Z"
        fill="#9CA3AF" />
</svg>