<svg width="28" height="28" viewBox="0 0 28 28" fill="none" xmlns="http://www.w3.org/2000/svg">
    <path
        d="M23.3333 12.2498V25.0832H19.8333V20.4165C19.8333 19.7977 19.5874 19.2042 19.1498 18.7666C18.7122 18.329 18.1188 18.0832 17.4999 18.0832C16.8811 18.0832 16.2876 18.329 15.85 18.7666C15.4124 19.2042 15.1666 19.7977 15.1666 20.4165V25.0832H2.33325V15.7498C2.33325 15.4404 2.45617 15.1437 2.67496 14.9249C2.89375 14.7061 3.1905 14.5832 3.49992 14.5832H8.16659C8.47601 14.5832 8.77275 14.7061 8.99154 14.9249C9.21034 15.1437 9.33325 15.4404 9.33325 15.7498V16.9165H11.6666V12.2498C11.0477 12.2498 10.4543 12.004 10.0167 11.5664C9.57908 11.1288 9.33325 10.5353 9.33325 9.9165V4.08317C9.33325 3.77375 9.45617 3.47701 9.67496 3.25821C9.89375 3.03942 10.1905 2.9165 10.4999 2.9165H15.1666C15.476 2.9165 15.7728 3.03942 15.9915 3.25821C16.2103 3.47701 16.3333 3.77375 16.3333 4.08317V5.24984H18.6666V4.08317C18.6666 3.77375 18.7895 3.47701 19.0083 3.25821C19.2271 3.03942 19.5238 2.9165 19.8333 2.9165H24.4999C24.8093 2.9165 25.1061 3.03942 25.3249 3.25821C25.5437 3.47701 25.6666 3.77375 25.6666 4.08317V9.9165C25.6666 10.5353 25.4208 11.1288 24.9832 11.5664C24.5456 12.004 23.9521 12.2498 23.3333 12.2498ZM16.3333 13.4165C16.0238 13.4165 15.7271 13.5394 15.5083 13.7582C15.2895 13.977 15.1666 14.2738 15.1666 14.5832C15.1666 14.8926 15.2895 15.1893 15.5083 15.4081C15.7271 15.6269 16.0238 15.7498 16.3333 15.7498H18.6666C18.976 15.7498 19.2728 15.6269 19.4915 15.4081C19.7103 15.1893 19.8333 14.8926 19.8333 14.5832C19.8333 14.2738 19.7103 13.977 19.4915 13.7582C19.2728 13.5394 18.976 13.4165 18.6666 13.4165H16.3333Z"
        fill="white" />
</svg>