<svg width="10" height="10" viewBox="0 0 10 10" fill="none" xmlns="http://www.w3.org/2000/svg">
    <path
        d="M5.86502 0.754824L6.74501 2.51482C6.86502 2.75982 7.18501 2.99482 7.45501 3.03982L9.05001 3.30482C10.07 3.47482 10.31 4.21482 9.57501 4.94482L8.33501 6.18482C8.12501 6.39482 8.01001 6.79982 8.07501 7.08982L8.43001 8.62482C8.71001 9.83982 8.06501 10.3098 6.99001 9.67482L5.49502 8.78982C5.22502 8.62982 4.78002 8.62982 4.50502 8.78982L3.01002 9.67482C1.94002 10.3098 1.29002 9.83482 1.57002 8.62482L1.92502 7.08982C1.99002 6.79982 1.87502 6.39482 1.66502 6.18482L0.425015 4.94482C-0.304984 4.21482 -0.0699843 3.47482 0.950016 3.30482L2.54502 3.03982C2.81002 2.99482 3.13002 2.75982 3.25002 2.51482L4.13002 0.754824C4.61002 -0.200176 5.39001 -0.200176 5.86502 0.754824Z"
        fill="#FF8142" />
</svg>