<svg width="28" height="29" viewBox="0 0 28 29" fill="none" xmlns="http://www.w3.org/2000/svg">
    <path
        d="M13.9997 2.57178C7.57134 2.57178 2.33301 7.81011 2.33301 14.2384C2.33301 20.6668 7.57134 25.9051 13.9997 25.9051C20.428 25.9051 25.6663 20.6668 25.6663 14.2384C25.6663 7.81011 20.428 2.57178 13.9997 2.57178ZM17.9197 16.9218C18.258 17.2601 18.258 17.8201 17.9197 18.1584C17.7447 18.3334 17.523 18.4151 17.3013 18.4151C17.0797 18.4151 16.858 18.3334 16.683 18.1584L13.9997 15.4751L11.3163 18.1584C11.1413 18.3334 10.9197 18.4151 10.698 18.4151C10.4763 18.4151 10.2547 18.3334 10.0797 18.1584C9.74134 17.8201 9.74134 17.2601 10.0797 16.9218L12.763 14.2384L10.0797 11.5551C9.74134 11.2168 9.74134 10.6568 10.0797 10.3184C10.418 9.98011 10.978 9.98011 11.3163 10.3184L13.9997 13.0018L16.683 10.3184C17.0213 9.98011 17.5813 9.98011 17.9197 10.3184C18.258 10.6568 18.258 11.2168 17.9197 11.5551L15.2363 14.2384L17.9197 16.9218Z"
        fill="#6B7280" />
</svg>