<svg width="10" height="12" viewBox="0 0 10 12" fill="none" xmlns="http://www.w3.org/2000/svg">
    <path
        d="M8.30008 8.21653L5.825 10.6916C5.60624 10.9102 5.30967 11.0329 5.00046 11.0329C4.69124 11.0329 4.39467 10.9102 4.17591 10.6916L1.70025 8.21653C1.04763 7.56388 0.603194 6.73236 0.423149 5.82712C0.243104 4.92188 0.335534 3.98358 0.68875 3.13088C1.04197 2.27817 1.6401 1.54935 2.40753 1.03658C3.17495 0.523811 4.0772 0.250122 5.00016 0.250122C5.92313 0.250122 6.82538 0.523811 7.5928 1.03658C8.36022 1.54935 8.95836 2.27817 9.31158 3.13088C9.6648 3.98358 9.75723 4.92188 9.57718 5.82712C9.39713 6.73236 8.9527 7.56388 8.30008 8.21653Z"
        fill="#9CA3AF" />
    <path
        d="M5 6.66663C5.9665 6.66663 6.75 5.88312 6.75 4.91663C6.75 3.95013 5.9665 3.16663 5 3.16663C4.0335 3.16663 3.25 3.95013 3.25 4.91663C3.25 5.88312 4.0335 6.66663 5 6.66663Z"
        fill="#111827" />
</svg>