<svg width="16" height="16" viewBox="0 0 16 16" fill="none" xmlns="http://www.w3.org/2000/svg">
    <path
        d="M9.5 12.7383H11C11.8284 12.7383 12.5 12.0667 12.5 11.2383V9.73828C12.5 8.90985 11.8284 8.23828 11 8.23828H9.5C8.67157 8.23828 8 8.90985 8 9.73828V11.2383C8 12.0667 8.67157 12.7383 9.5 12.7383Z"
        fill="#271E0C" />
    <path fill-rule="evenodd" clip-rule="evenodd"
        d="M4.25 0.738281C4.66421 0.738281 5 1.07407 5 1.48828V2.23828H11V1.48828C11 1.07407 11.3358 0.738281 11.75 0.738281C12.1642 0.738281 12.5 1.07407 12.5 1.48828V2.31329C14.2117 2.66075 15.5 4.17406 15.5 5.98828V11.9883C15.5 14.0594 13.8211 15.7383 11.75 15.7383H4.25C2.17893 15.7383 0.5 14.0594 0.5 11.9883V5.98828C0.5 4.17406 1.78832 2.66075 3.5 2.31329V1.48828C3.5 1.07407 3.83579 0.738281 4.25 0.738281ZM2 6.73828V11.9883C2 13.2309 3.00736 14.2383 4.25 14.2383H11.75C12.9926 14.2383 14 13.2309 14 11.9883V6.73828H2Z"
        fill="#271E0C" />
</svg>