<svg width="4" height="16" viewBox="0 0 4 16" fill="none" xmlns="http://www.w3.org/2000/svg">
<path d="M1.99996 8.83317C2.4602 8.83317 2.83329 8.46007 2.83329 7.99984C2.83329 7.5396 2.4602 7.1665 1.99996 7.1665C1.53972 7.1665 1.16663 7.5396 1.16663 7.99984C1.16663 8.46007 1.53972 8.83317 1.99996 8.83317Z" stroke="#111827" stroke-width="2" stroke-linecap="round" stroke-linejoin="round"/>
<path d="M1.99996 14.6667C2.4602 14.6667 2.83329 14.2936 2.83329 13.8333C2.83329 13.3731 2.4602 13 1.99996 13C1.53972 13 1.16663 13.3731 1.16663 13.8333C1.16663 14.2936 1.53972 14.6667 1.99996 14.6667Z" stroke="#111827" stroke-width="2" stroke-linecap="round" stroke-linejoin="round"/>
<path d="M1.99996 2.99992C2.4602 2.99992 2.83329 2.62682 2.83329 2.16659C2.83329 1.70635 2.4602 1.33325 1.99996 1.33325C1.53972 1.33325 1.16663 1.70635 1.16663 2.16659C1.16663 2.62682 1.53972 2.99992 1.99996 2.99992Z" stroke="#111827" stroke-width="2" stroke-linecap="round" stroke-linejoin="round"/>
</svg>
