<svg viewBox="0 0 19 14" fill="none" xmlns="http://www.w3.org/2000/svg" width="19" height="14">
    <g transform="matrix(1, 0, 0, 1, -177.285, -260.797)">
        <path
            d="M 185.438 266.453 C 185.125 266.765 184.949 267.189 184.949 267.631 C 184.949 268.073 185.125 268.497 185.437 268.81 C 185.75 269.123 186.174 269.299 186.616 269.299 C 187.058 269.299 187.482 269.123 187.795 268.811"
            stroke="#9CA3AF" stroke-width="1.5" stroke-linecap="round" stroke-linejoin="round"
            style="fill: rgb(156, 163, 175);"></path>
        <path
            d="M 182.269 263.08 C 182.983 262.875 185.875 261.794 186.618 261.797 C 189.951 261.797 192.729 263.741 194.951 267.63 C 194.303 268.764 191.919 271.233 191.177 272.037 M 191.082 272.088 C 189.723 273.004 188.236 273.463 186.618 273.463 C 183.285 273.463 180.507 271.519 178.285 267.63 C 179.426 265.634 180.712 264.151 182.145 263.179"
            stroke="#9CA3AF" stroke-width="1.5" stroke-linecap="round" stroke-linejoin="round"
            style="fill: none; transform-origin: 178.285px 261.797px;"></path>
        <path
            d="M 185.845 266.036 C 185.532 266.348 185.356 266.772 185.356 267.214 C 185.356 267.656 185.532 268.08 185.844 268.393 C 186.157 268.706 186.581 268.882 187.023 268.882 C 187.465 268.882 187.889 268.706 188.202 268.394"
            stroke="#9CA3AF" stroke-width="1.5" stroke-linecap="round" stroke-linejoin="round"
            style="transform-box: fill-box; transform-origin: 50% 50%; fill: rgb(156, 163, 175);"
            transform="matrix(-0.99449, 0.10483, -0.10483, -0.99449, 0.000019, 0.00003)"></path>
    </g>
</svg>