<svg width="20" height="20" viewBox="0 0 20 20" fill="none" xmlns="http://www.w3.org/2000/svg">
    <g clip-path="url(#clip0_3612_16640)">
        <path
            d="M13.9676 8.74767C14.3782 8.7488 14.785 8.66845 15.1644 8.51128C15.5438 8.35411 15.8882 8.12324 16.1777 7.83204L19.1856 4.82618C19.4235 4.58829 19.4453 4.20118 19.2188 3.95157C19.1619 3.88886 19.0929 3.83836 19.0159 3.80313C18.9389 3.7679 18.8556 3.74868 18.7709 3.74664C18.6863 3.74459 18.6021 3.75976 18.5235 3.79123C18.4449 3.8227 18.3735 3.86981 18.3137 3.9297L15.6328 6.6086C15.5428 6.69851 15.4208 6.74901 15.2936 6.74901C15.1663 6.74901 15.0443 6.69851 14.9543 6.6086C14.7672 6.42189 14.7774 6.10626 14.9641 5.91954L17.6332 3.2504C17.693 3.19057 17.7401 3.11921 17.7715 3.04065C17.803 2.96209 17.8181 2.87796 17.8161 2.79337C17.814 2.70878 17.7948 2.62549 17.7596 2.54854C17.7244 2.47159 17.674 2.40259 17.6113 2.34571C17.4982 2.24312 17.3508 2.18667 17.1981 2.18751C17.025 2.18763 16.8591 2.25648 16.7367 2.37892L14.0699 5.04532C13.9799 5.13523 13.8579 5.18573 13.7307 5.18573C13.6035 5.18573 13.4814 5.13523 13.3914 5.04532C13.2047 4.8586 13.2145 4.54298 13.4012 4.35626L16.0703 1.6879C16.1302 1.62807 16.1772 1.55671 16.2086 1.47815C16.2401 1.39959 16.2552 1.31546 16.2532 1.23087C16.2511 1.14628 16.2319 1.06299 16.1967 0.986037C16.1616 0.909088 16.1111 0.840085 16.0485 0.783212C15.9353 0.680619 15.7879 0.624169 15.6352 0.625009C15.4621 0.625214 15.2962 0.694049 15.1738 0.816416L12.168 3.82228C11.8768 4.11187 11.6459 4.45637 11.4887 4.83581C11.3315 5.21526 11.2512 5.62212 11.2524 6.03282V6.35431C11.2524 6.4365 11.2363 6.5179 11.2048 6.59384C11.1734 6.66979 11.1273 6.73878 11.0692 6.79689L9.67814 8.18829C9.66363 8.20282 9.64639 8.21434 9.62743 8.22221C9.60846 8.23007 9.58812 8.23412 9.56759 8.23412C9.54706 8.23412 9.52672 8.23007 9.50776 8.22221C9.48879 8.21434 9.47156 8.20282 9.45704 8.18829L2.68829 1.41915C2.57147 1.30219 2.41307 1.23628 2.24776 1.23584C2.08246 1.2354 1.92371 1.30047 1.80626 1.41681C1.21447 2.00313 0.898451 2.83087 0.898451 3.81017C0.894545 5.42735 1.74454 7.28673 3.11681 8.65704L6.4547 11.9949C6.92911 12.4684 7.57196 12.7343 8.2422 12.7344C8.45587 12.7345 8.66868 12.7072 8.8754 12.6531C8.92731 12.6395 8.98073 12.6326 9.03439 12.6324C9.19129 12.6325 9.34239 12.6918 9.45743 12.7984L9.90236 13.2094C10.0171 13.3266 10.0816 13.484 10.082 13.6481V13.8645C10.0809 14.3564 10.2742 14.8289 10.6199 15.1789L14.1375 18.7559L14.141 18.7598C14.5314 19.1501 15.0609 19.3694 15.613 19.3694C16.1651 19.3694 16.6946 19.15 17.085 18.7596C17.4753 18.3692 17.6946 17.8397 17.6946 17.2876C17.6946 16.7355 17.4752 16.206 17.0848 15.8156L11.8121 10.543C11.7976 10.5285 11.7861 10.5112 11.7782 10.4923C11.7703 10.4733 11.7663 10.453 11.7663 10.4324C11.7663 10.4119 11.7703 10.3916 11.7782 10.3726C11.7861 10.3536 11.7976 10.3364 11.8121 10.3219L13.2031 8.93087C13.2612 8.87278 13.3301 8.8267 13.406 8.79526C13.4819 8.76383 13.5632 8.74765 13.6453 8.74767H13.9676Z"
            fill="#9CA3AF" />
        <path
            d="M8.24214 13.9842C7.24149 13.9822 6.282 13.5857 5.57183 12.8807L5.03042 12.3393C4.97184 12.2809 4.89246 12.248 4.80972 12.248C4.72697 12.248 4.6476 12.2809 4.58901 12.3393L1.2687 15.6424C0.676904 16.2342 0.465576 17.1053 0.758544 17.9584C0.774941 18.0065 0.794382 18.0535 0.816748 18.0991C1.21089 18.9061 1.97573 19.3749 2.81245 19.3749C3.1002 19.3756 3.38523 19.3192 3.65102 19.2089C3.91682 19.0987 4.1581 18.9368 4.36089 18.7327L8.78901 14.2834C8.80765 14.2644 8.82192 14.2416 8.83083 14.2165C8.83973 14.1914 8.84306 14.1646 8.84058 14.1381V14.128C8.83884 14.1036 8.83219 14.0799 8.82102 14.0582C8.80986 14.0364 8.79441 14.0172 8.77561 14.0016C8.75681 13.986 8.73505 13.9744 8.71164 13.9675C8.68823 13.9605 8.66366 13.9584 8.6394 13.9612C8.50748 13.9758 8.37487 13.9835 8.24214 13.9842Z"
            fill="#9CA3AF" />
    </g>
    <defs>
        <clipPath id="clip0_3612_16640">
            <rect width="20" height="20" fill="white" />
        </clipPath>
    </defs>
</svg>