<svg width="28" height="28" viewBox="0 0 28 28" fill="none" xmlns="http://www.w3.org/2000/svg">
    <path
        d="M25.6666 24.7917H24.4999V11.6433C24.4999 10.92 24.1733 10.2433 23.6016 9.80001L22.1666 8.68001L22.1433 5.82167C22.1433 5.18001 21.6183 4.66667 20.9766 4.66667H16.9983L15.4349 3.45334C14.5949 2.78834 13.4049 2.78834 12.5649 3.45334L4.39825 9.80001C3.82659 10.2433 3.49992 10.92 3.49992 11.6317L3.44159 24.7917H2.33325C1.85492 24.7917 1.45825 25.1883 1.45825 25.6667C1.45825 26.145 1.85492 26.5417 2.33325 26.5417H25.6666C26.1449 26.5417 26.5416 26.145 26.5416 25.6667C26.5416 25.1883 26.1449 24.7917 25.6666 24.7917ZM7.58325 14.875V13.125C7.58325 12.4833 8.10825 11.9583 8.74992 11.9583H11.0833C11.7249 11.9583 12.2499 12.4833 12.2499 13.125V14.875C12.2499 15.5167 11.7249 16.0417 11.0833 16.0417H8.74992C8.10825 16.0417 7.58325 15.5167 7.58325 14.875ZM16.9166 24.7917H11.0833V21.5833C11.0833 20.615 11.8649 19.8333 12.8333 19.8333H15.1666C16.1349 19.8333 16.9166 20.615 16.9166 21.5833V24.7917ZM20.4166 14.875C20.4166 15.5167 19.8916 16.0417 19.2499 16.0417H16.9166C16.2749 16.0417 15.7499 15.5167 15.7499 14.875V13.125C15.7499 12.4833 16.2749 11.9583 16.9166 11.9583H19.2499C19.8916 11.9583 20.4166 12.4833 20.4166 13.125V14.875Z"
        fill="white" />
</svg>