<svg width="28" height="28" viewBox="0 0 28 28" fill="none" xmlns="http://www.w3.org/2000/svg">
    <path
        d="M26.4212 13.4193C25.2613 8.1753 23.5157 5.37639 20.9262 4.61186C20.3819 4.4522 19.8173 4.37243 19.2501 4.37506C18.5003 4.37506 17.8473 4.55772 17.1566 4.75131C16.3243 4.98483 15.3787 5.25006 14.0001 5.25006C12.6214 5.25006 11.6753 4.98538 10.8413 4.75186C10.1501 4.55772 9.49765 4.37506 8.75007 4.37506C8.16351 4.37303 7.57951 4.45254 7.01484 4.61131C4.43906 5.37256 2.69452 8.17038 1.51765 13.416C0.252181 19.0608 0.875072 22.6248 3.26437 23.4517C3.59188 23.5671 3.93648 23.6267 4.28374 23.6278C5.92054 23.6278 7.23304 22.2644 8.12992 21.1483C9.14327 19.885 10.3294 19.244 14.0001 19.244C17.2786 19.244 18.6354 19.6887 19.8073 21.1483C20.544 22.0659 21.2402 22.708 21.9347 23.1121C22.8584 23.6491 23.7815 23.7683 24.6778 23.4605C26.0898 22.9787 26.8992 21.705 27.0841 19.6739C27.2246 18.1164 27.008 16.0705 26.4212 13.4193ZM11.3751 13.1251H9.62507V14.8751C9.62507 15.1071 9.53288 15.3297 9.36879 15.4938C9.2047 15.6579 8.98214 15.7501 8.75007 15.7501C8.51801 15.7501 8.29545 15.6579 8.13135 15.4938C7.96726 15.3297 7.87507 15.1071 7.87507 14.8751V13.1251H6.12507C5.89301 13.1251 5.67045 13.0329 5.50635 12.8688C5.34226 12.7047 5.25007 12.4821 5.25007 12.2501C5.25007 12.018 5.34226 11.7954 5.50635 11.6313C5.67045 11.4672 5.89301 11.3751 6.12507 11.3751H7.87507V9.62506C7.87507 9.393 7.96726 9.17044 8.13135 9.00634C8.29545 8.84225 8.51801 8.75006 8.75007 8.75006C8.98214 8.75006 9.2047 8.84225 9.36879 9.00634C9.53288 9.17044 9.62507 9.393 9.62507 9.62506V11.3751H11.3751C11.6071 11.3751 11.8297 11.4672 11.9938 11.6313C12.1579 11.7954 12.2501 12.018 12.2501 12.2501C12.2501 12.4821 12.1579 12.7047 11.9938 12.8688C11.8297 13.0329 11.6071 13.1251 11.3751 13.1251ZM15.9688 13.3438C15.7525 13.3438 15.541 13.2797 15.3612 13.1595C15.1813 13.0393 15.0411 12.8685 14.9583 12.6686C14.8755 12.4688 14.8539 12.2488 14.8961 12.0367C14.9383 11.8245 15.0425 11.6296 15.1954 11.4767C15.3484 11.3237 15.5433 11.2195 15.7554 11.1773C15.9676 11.1351 16.1875 11.1568 16.3874 11.2396C16.5872 11.3224 16.7581 11.4625 16.8782 11.6424C16.9984 11.8223 17.0626 12.0337 17.0626 12.2501C17.0626 12.5401 16.9473 12.8183 16.7422 13.0235C16.5371 13.2286 16.2589 13.3438 15.9688 13.3438ZM18.3751 15.7501C18.1586 15.7501 17.9471 15.6858 17.7671 15.5655C17.5872 15.4452 17.447 15.2743 17.3643 15.0742C17.2816 14.8742 17.2601 14.6542 17.3025 14.4419C17.345 14.2297 17.4494 14.0348 17.6026 13.8819C17.7559 13.7291 17.951 13.6251 18.1634 13.5832C18.3757 13.5414 18.5957 13.5634 18.7955 13.6466C18.9953 13.7298 19.166 13.8704 19.2858 14.0506C19.4057 14.2309 19.4694 14.4426 19.4688 14.659C19.4681 14.9487 19.3525 15.2262 19.1475 15.4307C18.9425 15.6352 18.6647 15.7501 18.3751 15.7501ZM18.3751 10.9376C18.1587 10.9376 17.9473 10.8734 17.7674 10.7532C17.5876 10.633 17.4474 10.4622 17.3646 10.2624C17.2818 10.0625 17.2601 9.8426 17.3023 9.63043C17.3445 9.41827 17.4487 9.22338 17.6017 9.07041C17.7546 8.91745 17.9495 8.81328 18.1617 8.77108C18.3739 8.72888 18.5938 8.75054 18.7936 8.83332C18.9935 8.9161 19.1643 9.05629 19.2845 9.23616C19.4047 9.41602 19.4688 9.62749 19.4688 9.84381C19.4688 10.1339 19.3536 10.4121 19.1485 10.6172C18.9434 10.8223 18.6652 10.9376 18.3751 10.9376ZM20.7813 13.3438C20.565 13.3438 20.3535 13.2797 20.1737 13.1595C19.9938 13.0393 19.8536 12.8685 19.7708 12.6686C19.688 12.4688 19.6664 12.2488 19.7086 12.0367C19.7508 11.8245 19.855 11.6296 20.0079 11.4767C20.1609 11.3237 20.3558 11.2195 20.5679 11.1773C20.7801 11.1351 21 11.1568 21.1999 11.2396C21.3997 11.3224 21.5706 11.4625 21.6907 11.6424C21.8109 11.8223 21.8751 12.0337 21.8751 12.2501C21.8751 12.5401 21.7598 12.8183 21.5547 13.0235C21.3496 13.2286 21.0714 13.3438 20.7813 13.3438Z"
        fill="white" />
</svg>