<svg width="20" height="20" viewBox="0 0 20 20" fill="none" xmlns="http://www.w3.org/2000/svg">
    <path fill-rule="evenodd" clip-rule="evenodd"
        d="M7 6C7 5.44772 7.44772 5 8 5H10.667C11.4734 5 12.0811 5.49025 12.4416 6.03092C12.8067 6.5786 13 7.27765 13 8C13 8.72235 12.8067 9.4214 12.4416 9.96908C12.0811 10.5097 11.4734 11 10.667 11H9V14C9 14.5523 8.55228 15 8 15C7.44772 15 7 14.5523 7 14V6ZM9 9H10.6474C10.6672 8.98933 10.7137 8.95533 10.7774 8.85967C10.8948 8.6836 11 8.38265 11 8C11 7.61735 10.8948 7.3164 10.7774 7.14033C10.7137 7.04467 10.6672 7.01067 10.6474 7H9V9Z"
        fill="#9CA3AF" />
    <path fill-rule="evenodd" clip-rule="evenodd"
        d="M2.92893 2.92893C4.8043 1.05357 7.34784 0 10 0C12.6522 0 15.1957 1.05357 17.0711 2.92893C18.9464 4.8043 20 7.34784 20 10C20 11.3132 19.7413 12.6136 19.2388 13.8268C18.7362 15.0401 17.9997 16.1425 17.0711 17.0711C16.1425 17.9997 15.0401 18.7362 13.8268 19.2388C12.6136 19.7413 11.3132 20 10 20C8.68678 20 7.38642 19.7413 6.17317 19.2388C4.95991 18.7362 3.85752 17.9997 2.92893 17.0711C2.00035 16.1425 1.26375 15.0401 0.761205 13.8268C0.258658 12.6136 0 11.3132 0 10C5.96046e-08 7.34784 1.05357 4.8043 2.92893 2.92893ZM10 2C7.87827 2 5.84344 2.84285 4.34315 4.34315C2.84285 5.84344 2 7.87827 2 10C2 11.0506 2.20693 12.0909 2.60896 13.0615C3.011 14.0321 3.60028 14.914 4.34315 15.6569C5.08601 16.3997 5.96793 16.989 6.93853 17.391C7.90914 17.7931 8.94942 18 10 18C11.0506 18 12.0909 17.7931 13.0615 17.391C14.0321 16.989 14.914 16.3997 15.6569 15.6569C16.3997 14.914 16.989 14.0321 17.391 13.0615C17.7931 12.0909 18 11.0506 18 10C18 7.87827 17.1571 5.84344 15.6569 4.34315C14.1566 2.84285 12.1217 2 10 2Z"
        fill="#9CA3AF" />
</svg>