<svg width="14" height="14" viewBox="0 0 14 14" fill="none" xmlns="http://www.w3.org/2000/svg">
    <path
        d="M10.2998 9.71653L7.82475 12.1916C7.606 12.4102 7.30943 12.5329 7.00021 12.5329C6.691 12.5329 6.39443 12.4102 6.17567 12.1916L3.7 9.71653C3.04738 9.06388 2.60295 8.23236 2.42291 7.32712C2.24286 6.42188 2.33529 5.48358 2.68851 4.63088C3.04172 3.77817 3.63986 3.04935 4.40728 2.53658C5.17471 2.02381 6.07695 1.75012 6.99992 1.75012C7.92289 1.75012 8.82513 2.02381 9.59256 2.53658C10.36 3.04935 10.9581 3.77817 11.3113 4.63088C11.6646 5.48358 11.757 6.42188 11.5769 7.32712C11.3969 8.23236 10.9525 9.06388 10.2998 9.71653Z"
        fill="#9CA3AF" stroke="#9CA3AF" stroke-width="1.5" stroke-linecap="round" stroke-linejoin="round" />
    <path
        d="M7 8.16663C7.9665 8.16663 8.75 7.38312 8.75 6.41663C8.75 5.45013 7.9665 4.66663 7 4.66663C6.0335 4.66663 5.25 5.45013 5.25 6.41663C5.25 7.38312 6.0335 8.16663 7 8.16663Z"
        fill="white" />
</svg>