<svg width="22" height="20" viewBox="0 0 22 20" fill="none" xmlns="http://www.w3.org/2000/svg">
    <path fill-rule="evenodd" clip-rule="evenodd"
        d="M4.73225 0.732233C5.20109 0.263392 5.83697 0 6.50001 0C7.16306 0 7.79894 0.263392 8.26778 0.732233C8.61697 1.08142 8.8522 1.52328 8.94951 2H13.0505C13.1478 1.52328 13.3831 1.08142 13.7322 0.732233C14.2011 0.263392 14.837 0 15.5 0C16.1631 0 16.7989 0.263393 17.2678 0.732233C17.7366 1.20107 18 1.83696 18 2.5C18 3.05228 17.5523 3.5 17 3.5C16.4477 3.5 16 3.05228 16 2.5C16 2.36739 15.9473 2.24022 15.8536 2.14645C15.7598 2.05268 15.6326 2 15.5 2C15.3674 2 15.2402 2.05268 15.1465 2.14645C15.0527 2.24021 15 2.36739 15 2.5V10C15 10.5523 14.5523 11 14 11C13.4477 11 13 10.5523 13 10V9H9.00001V10C9.00001 10.5523 8.5523 11 8.00001 11C7.44773 11 7.00001 10.5523 7.00001 10V2.5C7.00001 2.36739 6.94734 2.24021 6.85357 2.14645C6.7598 2.05268 6.63262 2 6.50001 2C6.36741 2 6.24023 2.05268 6.14646 2.14645C6.05269 2.24021 6.00001 2.36739 6.00001 2.5C6.00001 3.05228 5.5523 3.5 5.00001 3.5C4.44773 3.5 4.00001 3.05228 4.00001 2.5C4.00001 1.83696 4.26341 1.20107 4.73225 0.732233ZM9.00001 4V7H13V4H9.00001ZM6.97907 13.9998C6.75187 13.995 6.52692 14.0456 6.32365 14.1473C6.12039 14.2489 5.94492 14.3985 5.81241 14.5831C5.49058 15.0315 5.06445 15.3948 4.5708 15.6416C4.08341 15.8853 3.54467 16.0082 3.00001 16.0002C2.45536 16.0082 1.91662 15.8853 1.42923 15.6416C0.935584 15.3948 0.509449 15.0315 0.187624 14.5831C-0.134421 14.1344 -0.0317701 13.5097 0.416901 13.1876C0.865571 12.8656 1.49036 12.9682 1.8124 13.4169C1.94492 13.6015 2.12039 13.7511 2.32365 13.8527C2.52692 13.9544 2.75186 14.005 2.97907 14.0002C2.99303 13.9999 3.007 13.9999 3.02096 14.0002C3.24816 14.005 3.47311 13.9544 3.67638 13.8527C3.87964 13.7511 4.05511 13.6015 4.18762 13.4169C4.50945 12.9685 4.93559 12.6052 5.42923 12.3584C5.91662 12.1147 6.45535 11.9918 7.00001 11.9998C7.54467 11.9918 8.08341 12.1147 8.5708 12.3584C9.06445 12.6052 9.49058 12.9685 9.8124 13.4169C9.94492 13.6015 10.1204 13.7511 10.3237 13.8527C10.5269 13.9544 10.7519 14.005 10.9791 14.0002C10.993 13.9999 11.007 13.9999 11.021 14.0002C11.2482 14.005 11.4731 13.9544 11.6764 13.8527C11.8796 13.7511 12.0551 13.6015 12.1876 13.4169C12.5094 12.9685 12.9356 12.6052 13.4292 12.3584C13.9166 12.1147 14.4554 11.9918 15 11.9998C15.5447 11.9918 16.0834 12.1147 16.5708 12.3584C17.0644 12.6052 17.4906 12.9685 17.8124 13.4169C17.9449 13.6015 18.1204 13.7511 18.3237 13.8527C18.5269 13.9544 18.7519 14.005 18.9791 14.0002C18.993 13.9999 19.007 13.9999 19.021 14.0002C19.2482 14.005 19.4731 13.9544 19.6764 13.8527C19.8796 13.7511 20.0551 13.6015 20.1876 13.4169C20.5097 12.9682 21.1345 12.8656 21.5831 13.1876C22.0318 13.5097 22.1345 14.1344 21.8124 14.5831C21.4906 15.0315 21.0644 15.3948 20.5708 15.6416C20.0834 15.8853 19.5447 16.0082 19 16.0002C18.4554 16.0082 17.9166 15.8853 17.4292 15.6416C16.9356 15.3948 16.5094 15.0315 16.1876 14.5831C16.0551 14.3985 15.8796 14.2489 15.6764 14.1473C15.4731 14.0456 15.2482 13.995 15.021 13.9998C15.007 14.0001 14.993 14.0001 14.9791 13.9998C14.7519 13.995 14.5269 14.0456 14.3237 14.1473C14.1204 14.2489 13.9449 14.3985 13.8124 14.5831C13.4906 15.0315 13.0644 15.3948 12.5708 15.6416C12.0834 15.8853 11.5447 16.0082 11 16.0002C10.4554 16.0082 9.91662 15.8853 9.42922 15.6416C8.93558 15.3948 8.50945 15.0315 8.18762 14.5831C8.05511 14.3985 7.87964 14.2489 7.67638 14.1473C7.47311 14.0456 7.24816 13.995 7.02096 13.9998C7.007 14.0001 6.99303 14.0001 6.97907 13.9998ZM6.97907 17.9998C6.75186 17.995 6.52692 18.0456 6.32365 18.1473C6.12039 18.2489 5.94492 18.3985 5.81241 18.5831C5.49058 19.0315 5.06445 19.3948 4.5708 19.6416C4.08341 19.8853 3.54467 20.0082 3.00001 20.0002C2.45536 20.0082 1.91662 19.8853 1.42923 19.6416C0.935584 19.3948 0.509449 19.0315 0.187624 18.5831C-0.134421 18.1344 -0.0317701 17.5097 0.416901 17.1876C0.865571 16.8656 1.49036 16.9682 1.8124 17.4169C1.94492 17.6015 2.12039 17.7511 2.32365 17.8527C2.52692 17.9544 2.75186 18.005 2.97907 18.0002C2.99303 17.9999 3.007 17.9999 3.02096 18.0002C3.24816 18.005 3.47311 17.9544 3.67638 17.8527C3.87964 17.7511 4.05511 17.6015 4.18762 17.4169C4.50945 16.9685 4.93558 16.6052 5.42923 16.3584C5.91662 16.1147 6.45536 15.9918 7.00001 15.9998C7.54467 15.9918 8.08341 16.1147 8.5708 16.3584C9.06445 16.6052 9.49058 16.9685 9.8124 17.4169C9.94492 17.6015 10.1204 17.7511 10.3237 17.8527C10.5269 17.9544 10.7519 18.005 10.9791 18.0002C10.993 17.9999 11.007 17.9999 11.021 18.0002C11.2482 18.005 11.4731 17.9544 11.6764 17.8527C11.8796 17.7511 12.0551 17.6015 12.1876 17.4169C12.5094 16.9685 12.9356 16.6052 13.4292 16.3584C13.9166 16.1147 14.4554 15.9918 15 15.9998C15.5447 15.9918 16.0834 16.1147 16.5708 16.3584C17.0644 16.6052 17.4906 16.9685 17.8124 17.4169C17.9449 17.6015 18.1204 17.7511 18.3237 17.8527C18.5269 17.9544 18.7519 18.005 18.9791 18.0002C18.993 17.9999 19.007 17.9999 19.021 18.0002C19.2482 18.005 19.4731 17.9544 19.6764 17.8527C19.8796 17.7511 20.0551 17.6015 20.1876 17.4169C20.5097 16.9682 21.1345 16.8656 21.5831 17.1876C22.0318 17.5097 22.1345 18.1344 21.8124 18.5831C21.4906 19.0315 21.0644 19.3948 20.5708 19.6416C20.0834 19.8853 19.5447 20.0082 19 20.0002C18.4554 20.0082 17.9166 19.8853 17.4292 19.6416C16.9356 19.3948 16.5094 19.0315 16.1876 18.5831C16.0551 18.3985 15.8796 18.2489 15.6764 18.1473C15.4731 18.0456 15.2482 17.995 15.021 17.9998C15.007 18.0001 14.993 18.0001 14.9791 17.9998C14.7519 17.995 14.5269 18.0456 14.3237 18.1473C14.1204 18.2489 13.9449 18.3985 13.8124 18.5831C13.4906 19.0315 13.0644 19.3948 12.5708 19.6416C12.0834 19.8853 11.5447 20.0082 11 20.0002C10.4554 20.0082 9.91662 19.8853 9.42922 19.6416C8.93558 19.3948 8.50945 19.0315 8.18762 18.5831C8.05511 18.3985 7.87964 18.2489 7.67638 18.1473C7.47311 18.0456 7.24817 17.995 7.02096 17.9998C7.007 18.0001 6.99303 18.0001 6.97907 17.9998Z"
        fill="#9CA3AF" />
</svg>