<svg width="152" height="152" viewBox="0 0 152 152" fill="none" xmlns="http://www.w3.org/2000/svg">
    <circle cx="76" cy="76" r="75.5" stroke="#4B5563" stroke-dasharray="8 8" />
    <circle cx="76" cy="76" r="60" fill="#1F2937" />
    <rect x="40" y="40" width="72" height="72" rx="36" fill="#D0AB62" />
    <path
        d="M78.917 59.3333C79.9116 59.3333 80.8654 59.7284 81.5686 60.4317C82.2719 61.1349 82.667 62.0888 82.667 63.0833V74.0616C81.6294 74.5556 80.76 75.3439 80.167 76.3283V63.0833C80.167 62.7518 80.0353 62.4338 79.8009 62.1994C79.5665 61.965 79.2485 61.8333 78.917 61.8333H66.417C66.0855 61.8333 65.7675 61.965 65.5331 62.1994C65.2987 62.4338 65.167 62.7518 65.167 63.0833V88.9166C65.167 89.6066 65.727 90.1666 66.417 90.1666H76.0003V91.8333C76.0003 92.1183 76.0287 92.3966 76.0837 92.6666H66.417C65.9245 92.6666 65.4369 92.5696 64.9819 92.3812C64.527 92.1927 64.1136 91.9165 63.7653 91.5683C63.0621 90.865 62.667 89.9112 62.667 88.9166V63.0833C62.667 62.0888 63.0621 61.1349 63.7653 60.4317C64.4686 59.7284 65.4224 59.3333 66.417 59.3333H78.917ZM81.0003 79.3333C80.9994 78.7859 81.1066 78.2437 81.3157 77.7378C81.5248 77.2318 81.8317 76.7722 82.2188 76.3851C82.6058 75.998 83.0655 75.6911 83.5714 75.482C84.0774 75.2729 84.6196 75.1658 85.167 75.1666C86.2721 75.1666 87.3319 75.6056 88.1133 76.387C88.8947 77.1684 89.3337 78.2282 89.3337 79.3333V81H90.167C90.83 81 91.4659 81.2634 91.9348 81.7322C92.4036 82.2011 92.667 82.8369 92.667 83.5V91.8333C92.667 92.4963 92.4036 93.1322 91.9348 93.6011C91.4659 94.0699 90.83 94.3333 90.167 94.3333H80.167C79.504 94.3333 78.8681 94.0699 78.3992 93.6011C77.9304 93.1322 77.667 92.4963 77.667 91.8333V83.5C77.667 82.8369 77.9304 82.2011 78.3992 81.7322C78.8681 81.2634 79.504 81 80.167 81H81.0003V79.3333ZM83.5003 79.3333V81H86.8337V79.3333C86.8337 78.8913 86.6581 78.4674 86.3455 78.1548C86.0329 77.8422 85.609 77.6666 85.167 77.6666C84.725 77.6666 84.301 77.8422 83.9885 78.1548C83.6759 78.4674 83.5003 78.8913 83.5003 79.3333ZM86.8337 87.6666C86.8337 87.2246 86.6581 86.8007 86.3455 86.4881C86.0329 86.1756 85.609 86 85.167 86C84.725 86 84.301 86.1756 83.9885 86.4881C83.6759 86.8007 83.5003 87.2246 83.5003 87.6666C83.5003 88.1087 83.6759 88.5326 83.9885 88.8452C84.301 89.1577 84.725 89.3333 85.167 89.3333C85.609 89.3333 86.0329 89.1577 86.3455 88.8452C86.6581 88.5326 86.8337 88.1087 86.8337 87.6666ZM76.0003 86.415V86.4166C76.0003 86.7479 75.8689 87.0656 75.6348 87.2999C75.4007 87.5343 75.0832 87.6662 74.752 87.6666L70.5853 87.6733C70.2538 87.6738 69.9357 87.5425 69.701 87.3084C69.4662 87.0743 69.3341 86.7565 69.3337 86.425C69.3332 86.0935 69.4645 85.7753 69.6986 85.5406C69.9327 85.3059 70.2505 85.1738 70.582 85.1733L74.7487 85.1666C74.9128 85.1664 75.0754 85.1985 75.2271 85.2612C75.3789 85.3238 75.5168 85.4157 75.633 85.5316C75.7493 85.6475 75.8415 85.7852 75.9045 85.9367C75.9676 86.0883 76.0001 86.2508 76.0003 86.415Z"
        fill="white" />
</svg>