<svg width="152" height="152" viewBox="0 0 152 152" fill="none" xmlns="http://www.w3.org/2000/svg">
    <circle cx="76" cy="76" r="75.5" stroke="#E5E7EB" stroke-dasharray="8 8" />
    <circle cx="76" cy="76" r="60" fill="#F3EAD8" />
    <rect x="40" y="40" width="72" height="72" rx="36" fill="#D0AB62" />
    <path
        d="M78.9166 59.3334C79.9112 59.3334 80.865 59.7285 81.5683 60.4317C82.2715 61.135 82.6666 62.0888 82.6666 63.0834V74.0617C81.629 74.5557 80.7596 75.344 80.1666 76.3284V63.0834C80.1666 62.7519 80.0349 62.4339 79.8005 62.1995C79.5661 61.9651 79.2481 61.8334 78.9166 61.8334H66.4166C66.0851 61.8334 65.7672 61.9651 65.5327 62.1995C65.2983 62.4339 65.1666 62.7519 65.1666 63.0834V88.9167C65.1666 89.6067 65.7266 90.1667 66.4166 90.1667H76V91.8334C76 92.1184 76.0283 92.3967 76.0833 92.6667H66.4166C65.9242 92.6667 65.4365 92.5697 64.9816 92.3813C64.5266 92.1928 64.1132 91.9166 63.765 91.5684C63.0617 90.8651 62.6666 89.9113 62.6666 88.9167V63.0834C62.6666 62.0888 63.0617 61.135 63.765 60.4317C64.4682 59.7285 65.4221 59.3334 66.4166 59.3334H78.9166ZM81 79.3334C80.9991 78.786 81.1063 78.2437 81.3153 77.7378C81.5244 77.2319 81.8313 76.7722 82.2184 76.3851C82.6055 75.9981 83.0652 75.6912 83.5711 75.4821C84.077 75.273 84.6192 75.1658 85.1666 75.1667C86.2717 75.1667 87.3315 75.6057 88.1129 76.3871C88.8943 77.1685 89.3333 78.2283 89.3333 79.3334V81H90.1666C90.8297 81 91.4655 81.2634 91.9344 81.7323C92.4032 82.2011 92.6666 82.837 92.6666 83.5V91.8334C92.6666 92.4964 92.4032 93.1323 91.9344 93.6011C91.4655 94.07 90.8297 94.3334 90.1666 94.3334H80.1666C79.5036 94.3334 78.8677 94.07 78.3989 93.6011C77.93 93.1323 77.6666 92.4964 77.6666 91.8334V83.5C77.6666 82.837 77.93 82.2011 78.3989 81.7323C78.8677 81.2634 79.5036 81 80.1666 81H81V79.3334ZM83.5 79.3334V81H86.8333V79.3334C86.8333 78.8913 86.6577 78.4674 86.3451 78.1549C86.0326 77.8423 85.6087 77.6667 85.1666 77.6667C84.7246 77.6667 84.3007 77.8423 83.9881 78.1549C83.6756 78.4674 83.5 78.8913 83.5 79.3334ZM86.8333 87.6667C86.8333 87.2247 86.6577 86.8008 86.3451 86.4882C86.0326 86.1756 85.6087 86 85.1666 86C84.7246 86 84.3007 86.1756 83.9881 86.4882C83.6756 86.8008 83.5 87.2247 83.5 87.6667C83.5 88.1087 83.6756 88.5327 83.9881 88.8452C84.3007 89.1578 84.7246 89.3334 85.1666 89.3334C85.6087 89.3334 86.0326 89.1578 86.3451 88.8452C86.6577 88.5327 86.8333 88.1087 86.8333 87.6667ZM76 86.415V86.4167C76 86.7479 75.8685 87.0656 75.6344 87.3C75.4004 87.5344 75.0829 87.6663 74.7516 87.6667L70.585 87.6734C70.2534 87.6738 69.9353 87.5425 69.7006 87.3084C69.4659 87.0743 69.3337 86.7566 69.3333 86.425C69.3328 86.0935 69.4641 85.7754 69.6982 85.5407C69.9323 85.3059 70.2501 85.1738 70.5816 85.1734L74.7483 85.1667C74.9124 85.1665 75.075 85.1986 75.2268 85.2612C75.3785 85.3238 75.5164 85.4157 75.6327 85.5316C75.7489 85.6476 75.8411 85.7852 75.9042 85.9368C75.9672 86.0884 75.9997 86.2509 76 86.415Z"
        fill="white" />
</svg>