<svg width="152" height="152" viewBox="0 0 152 152" fill="none" xmlns="http://www.w3.org/2000/svg">
    <circle cx="76" cy="76" r="75.5" stroke="#E5E7EB" stroke-dasharray="8 8" />
    <circle cx="76" cy="76" r="60" fill="#CCEFFF" />
    <rect x="40" y="40" width="72" height="72" rx="36" fill="#01A7F4" />
    <path
        d="M78.9167 59.3334C79.9113 59.3334 80.8651 59.7285 81.5684 60.4317C82.2717 61.135 82.6667 62.0888 82.6667 63.0834V74.0617C81.6291 74.5557 80.7597 75.344 80.1667 76.3284V63.0834C80.1667 62.7519 80.035 62.4339 79.8006 62.1995C79.5662 61.9651 79.2483 61.8334 78.9167 61.8334H66.4167C66.0852 61.8334 65.7673 61.9651 65.5329 62.1995C65.2984 62.4339 65.1667 62.7519 65.1667 63.0834V88.9167C65.1667 89.6067 65.7267 90.1667 66.4167 90.1667H76.0001V91.8334C76.0001 92.1184 76.0284 92.3967 76.0834 92.6667H66.4167C65.9243 92.6667 65.4367 92.5697 64.9817 92.3813C64.5267 92.1928 64.1133 91.9166 63.7651 91.5684C63.0618 90.8651 62.6667 89.9113 62.6667 88.9167V63.0834C62.6667 62.0888 63.0618 61.135 63.7651 60.4317C64.4684 59.7285 65.4222 59.3334 66.4167 59.3334H78.9167ZM81.0001 79.3334C80.9992 78.786 81.1064 78.2437 81.3155 77.7378C81.5245 77.2319 81.8314 76.7722 82.2185 76.3851C82.6056 75.9981 83.0653 75.6912 83.5712 75.4821C84.0771 75.273 84.6193 75.1658 85.1667 75.1667C86.2718 75.1667 87.3316 75.6057 88.113 76.3871C88.8944 77.1685 89.3334 78.2283 89.3334 79.3334V81H90.1667C90.8298 81 91.4657 81.2634 91.9345 81.7323C92.4034 82.2011 92.6667 82.837 92.6667 83.5V91.8334C92.6667 92.4964 92.4034 93.1323 91.9345 93.6011C91.4657 94.07 90.8298 94.3334 90.1667 94.3334H80.1667C79.5037 94.3334 78.8678 94.07 78.399 93.6011C77.9301 93.1323 77.6667 92.4964 77.6667 91.8334V83.5C77.6667 82.837 77.9301 82.2011 78.399 81.7323C78.8678 81.2634 79.5037 81 80.1667 81H81.0001V79.3334ZM83.5001 79.3334V81H86.8334V79.3334C86.8334 78.8913 86.6578 78.4674 86.3453 78.1549C86.0327 77.8423 85.6088 77.6667 85.1667 77.6667C84.7247 77.6667 84.3008 77.8423 83.9882 78.1549C83.6757 78.4674 83.5001 78.8913 83.5001 79.3334ZM86.8334 87.6667C86.8334 87.2247 86.6578 86.8008 86.3453 86.4882C86.0327 86.1756 85.6088 86 85.1667 86C84.7247 86 84.3008 86.1756 83.9882 86.4882C83.6757 86.8008 83.5001 87.2247 83.5001 87.6667C83.5001 88.1087 83.6757 88.5327 83.9882 88.8452C84.3008 89.1578 84.7247 89.3334 85.1667 89.3334C85.6088 89.3334 86.0327 89.1578 86.3453 88.8452C86.6578 88.5327 86.8334 88.1087 86.8334 87.6667ZM76.0001 86.415V86.4167C76.0001 86.7479 75.8686 87.0656 75.6346 87.3C75.4005 87.5344 75.083 87.6663 74.7517 87.6667L70.5851 87.6734C70.2536 87.6738 69.9354 87.5425 69.7007 87.3084C69.466 87.0743 69.3339 86.7566 69.3334 86.425C69.333 86.0935 69.4642 85.7754 69.6984 85.5407C69.9325 85.3059 70.2502 85.1738 70.5817 85.1734L74.7484 85.1667C74.9126 85.1665 75.0752 85.1986 75.2269 85.2612C75.3786 85.3238 75.5166 85.4157 75.6328 85.5316C75.749 85.6476 75.8413 85.7852 75.9043 85.9368C75.9673 86.0884 75.9999 86.2509 76.0001 86.415Z"
        fill="white" />
</svg>