<svg width="16" height="12" viewBox="0 0 16 12" fill="none" xmlns="http://www.w3.org/2000/svg">
    <path fill-rule="evenodd" clip-rule="evenodd"
        d="M7.99995 5.25C7.31049 5.25 6.62778 5.3858 5.9908 5.64966C5.35383 5.91351 4.77506 6.30025 4.28755 6.78779C3.99466 7.08069 3.51979 7.0807 3.22689 6.78781C2.93398 6.49493 2.93397 6.02005 3.22686 5.72715C3.85366 5.10032 4.59779 4.60309 5.41676 4.26385C6.23573 3.92461 7.1135 3.75 7.99995 3.75C8.8864 3.75 9.76418 3.92461 10.5831 4.26385C11.4021 4.60309 12.1462 5.10032 12.773 5.72715C13.0659 6.02005 13.0659 6.49493 12.773 6.78781C12.4801 7.0807 12.0052 7.08069 11.7124 6.78779C11.2248 6.30025 10.6461 5.91351 10.0091 5.64966C9.37213 5.3858 8.68941 5.25 7.99995 5.25ZM7.99995 8.25086C7.40333 8.25086 6.83114 8.48782 6.4092 8.90963C6.11626 9.20248 5.64139 9.20241 5.34854 8.90947C5.05569 8.61653 5.05576 8.14166 5.3487 7.84881C6.05193 7.14579 7.00559 6.75086 7.99995 6.75086C8.99432 6.75086 9.94797 7.14579 10.6512 7.84881C10.9441 8.14166 10.9442 8.61653 10.6514 8.90947C10.3585 9.20241 9.88364 9.20248 9.5907 8.90963C9.16877 8.48782 8.59657 8.25086 7.99995 8.25086ZM7.24995 10.5002C7.24995 10.086 7.58574 9.75022 7.99995 9.75022H8.00745C8.42167 9.75022 8.75745 10.086 8.75745 10.5002C8.75745 10.9144 8.42167 11.2502 8.00745 11.2502H7.99995C7.58574 11.2502 7.24995 10.9144 7.24995 10.5002Z"
        fill="white" />
    <path fill-rule="evenodd" clip-rule="evenodd"
        d="M13.8575 4.6684C10.6121 1.44294 5.38728 1.44536 2.16662 4.66671C1.87376 4.95963 1.39888 4.95969 1.10596 4.66682C0.813033 4.37396 0.812982 3.89909 1.10584 3.60616C4.91418 -0.202986 11.0863 -0.20056 14.9149 3.60447C15.2087 3.89646 15.2102 4.37133 14.9182 4.66513C14.6262 4.95892 14.1513 4.96039 13.8575 4.6684Z"
        fill="white" />
</svg>